<svg width="772" height="533" viewBox="0 0 772 533" fill="none" xmlns="http://www.w3.org/2000/svg">
<path d="M551.852 136.796C552.124 135.725 551.476 134.637 550.405 134.366L532.956 129.945C531.885 129.674 530.797 130.322 530.526 131.393C530.255 132.464 530.903 133.552 531.974 133.823L547.484 137.752L543.554 153.262C543.283 154.333 543.931 155.421 545.002 155.692C546.073 155.963 547.161 155.315 547.432 154.245L551.852 136.796ZM254 383.073L253.305 384.948C317.279 408.671 356.485 412.464 382.095 402.338C407.891 392.139 419.263 368.095 428.377 338.378C446.687 278.674 456.552 194.251 550.937 138.023L549.914 136.305L548.89 134.586C452.868 191.789 442.657 278.172 424.552 337.205C415.459 366.856 404.538 389.164 380.624 398.618C356.524 408.147 318.601 404.896 254.695 381.198L254 383.073Z" fill="#2E5266"/>
<path d="M591.725 138.411C616.892 171.917 620.75 187.055 618.035 205.981C616.239 218.367 611.32 229.176 608.401 235H701.781C693.127 215.794 691.474 188.57 730.091 188.112C759.279 187.753 754.911 143.577 754.85 128.898C754.85 125.647 763.688 123.373 769.525 119.604C777.424 114.478 764.586 105.823 756.585 98.3637C748.584 90.9047 748.665 85.8389 748.951 73.7927C749.033 70.7413 748.951 67.7497 748.686 64.8778C745.196 23.0553 709.191 0 661.266 0C590.501 0 545.678 77.0237 591.746 138.411H591.725Z" fill="#2E5266"/>
<path d="M604.931 106.401C609.687 111.547 612.728 123.393 611.708 132.747C610.912 140.027 609.503 146.189 612.279 148.902L700.393 235H701.761C693.107 215.794 691.453 188.57 730.071 188.112C759.259 187.753 754.891 143.577 754.829 128.898C754.829 125.647 763.667 123.373 769.505 119.604C777.404 114.478 764.565 105.823 756.564 98.3637C748.563 90.9047 748.645 85.8389 748.931 73.7927C749.012 70.7413 748.931 67.7497 748.665 64.8778L721.172 38.0132C718.396 35.3009 715.579 34.1242 712.926 33.0272L699.903 20.303C698.332 18.7673 696.597 17.5108 695.066 16.8925C691.943 15.5962 685.412 16.1347 680.533 18.0294C667.858 22.9954 668.613 15.8954 656.081 15.4965C651.876 15.3569 645.712 18.149 642.406 21.6991C631.915 32.9674 621.77 20.3828 614.239 29.3775C612.545 31.3918 610.993 34.523 609.585 39.2498C608.115 44.2358 606.625 47.008 605.095 48.8428C602.625 51.7945 600.012 52.3131 597.114 55.7833C595.746 57.4187 594.318 59.6923 592.807 63.2025C586.847 76.9239 594.807 95.4918 604.911 106.401H604.931Z" fill="#2E5266"/>
<path d="M615.79 150.358C608.646 149.6 610.687 142.121 611.708 132.767C612.728 123.413 609.687 111.567 604.931 106.421C594.828 95.4917 586.867 76.9438 592.827 63.2223C599.563 47.666 604.625 56.1223 609.605 39.2696C617.239 13.5419 629.567 35.5201 642.426 21.7388C645.733 18.1888 651.897 15.3967 656.101 15.5363C668.613 15.9351 667.878 23.0352 680.554 18.0692C685.432 16.1545 691.984 15.636 695.086 16.9124C698.189 18.1888 702.149 22.0978 703.883 25.608C708.415 34.7423 716.355 31.0726 723.478 40.6856C730.377 50.0194 724.764 56.4813 730.071 64.9176C738.46 78.2401 727.805 94.0358 716.497 96.0701C711.885 96.9077 705.516 95.8706 702.332 93.7765C699.148 91.6824 696.433 93.1383 696.27 97.0274C695.944 105.105 682.983 116.194 670.43 114.438C653.387 112.045 650.141 106.979 645.794 120.023C644.753 123.134 642.038 129.137 636.854 127.98C629.241 126.305 627.444 127.402 624.566 140.465C623.281 146.289 622.403 151.036 615.79 150.338V150.358Z" fill="white"/>
<path d="M661.011 96.4115C680.634 96.4115 696.604 81.2878 696.604 62.7057C696.604 44.1236 680.634 29 661.011 29C641.388 29 625.417 44.1236 625.417 62.7057C625.417 81.2878 641.388 96.4115 661.011 96.4115ZM661.011 31.9505C678.942 31.9505 693.509 45.7454 693.509 62.7253C693.509 79.7052 678.942 93.5001 661.011 93.5001C643.08 93.5001 628.512 79.7052 628.512 62.7253C628.512 45.7454 643.08 31.9505 661.011 31.9505Z" fill="#D4A373"/>
<path d="M667.406 99.2057C687.029 99.2057 703 84.082 703 65.4999C703 46.9178 687.029 31.7942 667.406 31.7942C647.783 31.7942 631.813 46.9178 631.813 65.4999C631.813 84.082 647.783 99.2057 667.406 99.2057ZM667.406 34.7447C685.337 34.7447 699.905 48.5396 699.905 65.5195C699.905 82.4993 685.337 96.2943 667.406 96.2943C649.475 96.2943 634.908 82.4993 634.908 65.5195C634.908 48.5396 649.475 34.7447 667.406 34.7447Z" fill="#D4A373"/>
<path d="M656.594 102C676.217 102 692.188 86.8765 692.188 68.2944C692.188 49.7122 676.217 34.5886 656.594 34.5886C636.971 34.5886 621 49.7122 621 68.2944C621 86.8765 636.971 102 656.594 102ZM656.594 37.5391C674.525 37.5391 689.092 51.334 689.092 68.3139C689.092 85.2938 674.525 99.0887 656.594 99.0887C638.663 99.0887 624.095 85.2938 624.095 68.3139C624.095 51.334 638.663 37.5391 656.594 37.5391Z" fill="#D4A373"/>
<path d="M196.528 416.757C190.67 420.531 181.852 422.827 181.852 426.063C181.914 440.74 186.281 484.992 157.094 485.352C118.476 485.811 120.129 513.069 128.783 532.3H35.4021C38.3209 526.469 43.2604 515.626 45.0362 503.244C45.5261 499.75 45.8118 496.375 45.7914 493C45.6077 478.063 39.2599 462.946 18.7466 435.588C1.54002 412.623 -2.99126 387.482 1.78496 364.996C9.78613 327.274 43.934 297 88.2671 297C132.6 297 177.096 323.38 175.933 370.907C175.647 382.968 175.566 388.041 183.567 395.509C191.568 402.978 204.427 411.645 196.528 416.777V416.757Z" fill="#2E5266"/>
<path d="M153.236 387.881L45.7914 493.02C45.6077 478.083 39.2599 462.966 18.7466 435.608C1.54002 412.643 -2.99126 387.501 1.78496 365.016L42.0766 325.596C49.1185 318.707 58.3035 328.512 67.8559 320.304L69.897 318.307C73.3057 314.972 79.0821 312.436 83.1031 312.576C95.6151 312.975 94.9007 320.085 107.556 315.112C112.454 313.195 118.986 312.676 122.088 313.974C124.15 314.813 126.62 316.85 128.538 319.146C129.498 320.284 130.335 321.502 130.906 322.681C131.478 323.819 132.09 324.757 132.743 325.556C137.172 330.848 143.622 329.49 149.623 336.659C149.909 337.019 150.195 337.378 150.501 337.778C157.4 347.123 151.787 353.593 157.094 362.02C162.911 371.266 159.584 381.71 153.236 387.921V387.881Z" fill="#2E5266"/>
<path d="M42.8111 447.55C35.6672 446.791 37.7083 439.302 38.7289 429.937C39.7494 420.571 36.7082 408.709 31.9524 403.557C21.8488 392.614 13.8885 374.042 19.8485 360.303C26.5842 344.727 31.6462 353.194 36.6265 336.32C44.2603 310.559 56.5886 332.566 69.4477 318.767C72.7543 315.212 78.9185 312.417 83.1232 312.556C95.6352 312.956 94.9004 320.065 107.576 315.092C112.454 313.175 119.006 312.656 122.108 313.934C125.211 315.212 129.171 319.126 130.906 322.641C135.437 331.787 143.377 328.112 150.5 337.738C157.399 347.083 151.786 353.554 157.093 362.001C165.482 375.34 154.828 391.156 143.52 393.193C138.907 394.032 132.539 392.993 129.354 390.896C126.17 388.8 123.456 390.257 123.292 394.151C122.966 402.239 110.005 413.342 97.4518 411.585C80.4085 409.188 77.1631 404.116 72.8155 417.176C71.7745 420.291 69.0599 426.302 63.8754 425.144C56.2621 423.467 54.4659 424.565 51.5879 437.645C50.302 443.476 49.4243 448.229 42.8111 447.53V447.55Z" fill="white"/>
<path d="M63.9849 408.674C55.7388 408.674 50.2074 405.04 47.7172 397.851C46.4109 394.057 46.2272 389.883 47.1661 385.829C45.4107 385.51 43.6554 384.751 42.0225 383.593C38.2464 380.917 35.94 376.623 36.0012 372.43C36.042 369.015 37.4096 365.78 39.5936 363.164C38.2668 354.896 39.7773 346.31 44.1248 339.7C49.942 330.853 60.9436 326.061 70.7206 327.598C75.8642 323.265 83.7021 322.826 88.5599 323.045C99.7044 323.544 107.604 326.66 112.727 332.591C114.768 334.967 116.176 337.743 116.809 340.638C117.544 341.157 118.258 341.717 118.932 342.316C127.117 349.385 130.423 361.446 126.79 370.992C126.198 372.569 125.484 374.187 124.565 375.765C124.851 377.003 124.994 378.261 125.076 379.519C125.382 385.669 122.932 391.48 118.564 395.055C116.34 396.872 113.972 397.931 111.584 398.41C110.543 399.448 109.379 400.407 108.032 401.226C99.2146 406.697 88.5191 408.015 78.4972 405.839C77.8441 406.058 77.2113 406.258 76.5582 406.478C71.8228 407.955 67.5773 408.694 63.8828 408.694H63.9849V408.674ZM52.5138 384.391C51.5341 387.726 51.677 391.161 53.0037 394.276C56.5348 402.583 66.1077 404.86 81.4773 401.066C71.0268 398.61 61.5151 393.178 55.5755 385.31C55.3306 384.97 55.0856 384.631 54.8611 384.291C54.1059 384.391 53.3303 384.431 52.5342 384.411H52.5138V384.391ZM82.3958 404.8C90.6215 406.218 99.2146 404.76 106.379 399.908C106.91 399.548 107.42 399.149 107.91 398.749C103.093 398.989 98.3981 397.012 94.969 395.015C92.1727 399.488 87.3557 402.623 82.4162 404.78L82.3958 404.8ZM55.6571 385.51C55.7796 385.769 55.8817 386.009 56.0245 386.229C60.9028 395.614 68.9448 401.865 77.6196 404.241C82.5182 402.204 87.6006 399.049 90.3561 394.276C89.6213 393.757 88.9886 393.298 88.4375 392.838C86.6413 391.401 84.641 389.623 82.9877 387.327C79.4974 387.147 76.0275 386.568 72.6188 385.689C71.9452 387.367 70.8635 388.785 69.4551 389.823C66.8016 391.78 63.6175 391.8 60.964 389.923C59.0862 388.605 57.3104 387.107 55.7184 385.45H55.6775V385.49L55.6571 385.51ZM95.7447 393.717C99.7453 395.854 105.399 397.951 110.89 396.992C112.543 395.215 113.727 393.138 114.298 390.901C114.809 388.944 114.829 387.147 114.503 385.45C110.257 387.746 104.624 389.603 96.9489 390.662C96.6428 391.74 96.2141 392.759 95.7039 393.717H95.7447ZM115.441 384.232C115.829 386.129 115.829 388.245 115.319 390.502C114.931 392.179 114.298 393.757 113.421 395.235C114.605 394.735 115.748 393.977 116.87 392.938C120.116 389.843 121.932 384.831 121.687 379.459C121.687 378.84 121.606 378.221 121.544 377.602C120.116 379.978 118.197 382.235 115.441 384.192V384.232ZM87.0087 387.427C88.6416 389.064 90.4582 390.442 92.1727 391.56C92.7851 391.98 93.5607 392.459 94.3975 392.978C95.3569 391.221 95.9488 389.244 96.0304 387.047C93.03 387.347 90.0091 387.487 87.0087 387.427ZM53.963 385.949C55.3102 387.027 56.8002 388.006 58.331 388.884C60.4742 390.103 63.046 390.083 65.1892 388.805C66.2301 388.186 67.0466 387.367 67.5977 386.388C65.0667 385.789 62.5765 385.07 60.1272 384.172C58.7188 384.252 57.2696 384.072 55.9429 383.672C55.5551 384.551 54.8203 385.39 53.9222 385.949H53.963ZM97.5613 386.868C97.5613 387.626 97.4592 388.345 97.3572 389.044C104.746 387.966 110.135 386.209 114.156 383.952C114.033 383.573 113.911 383.233 113.747 382.874C112.359 383.433 110.869 383.952 109.196 384.451C105.399 385.589 101.501 386.388 97.5613 386.868ZM85.5799 385.829C89.0498 385.969 92.5401 385.829 95.9896 385.47C95.7447 381.975 94.0914 378.5 91.3563 375.705C90.2133 374.546 88.9886 373.548 87.7027 372.669C86.4372 372.549 85.1717 372.37 83.9062 372.15C82.457 374.227 81.9671 377.023 82.6203 379.838C83.151 382.135 84.2328 384.112 85.6003 385.809L85.5799 385.829ZM73.9047 383.852C76.8031 384.591 79.7423 385.07 82.7019 385.29C81.7834 383.732 81.0486 381.955 80.6404 379.918C80.0689 377.023 80.4363 374.087 81.5997 371.791C78.9667 371.152 76.3745 370.233 73.9455 369.254C74.1292 370.533 74.1088 371.89 73.8639 373.208C73.7619 373.688 73.6598 374.167 73.5169 374.626C73.9455 376.543 74.1701 378.58 74.2517 380.697C74.2925 381.795 74.1701 382.874 73.9047 383.872V383.852ZM92.581 372.849C93.1321 373.388 93.6423 373.987 94.1526 374.606C96.6019 377.642 98.0511 381.416 98.2757 385.29C101.378 384.811 104.44 384.012 107.44 382.934C108.726 382.454 109.89 381.995 110.931 381.476C108.706 376.683 104.215 373.348 100.97 371.411C98.7043 372.31 96.3978 372.749 94.2955 372.849C93.724 372.849 93.1525 372.849 92.5605 372.849H92.581ZM49.146 384.471C49.493 384.471 49.8604 384.471 50.2074 384.391C50.0237 383.912 49.8808 383.453 49.7991 382.954C49.7787 382.954 49.7379 382.874 49.6971 382.854C49.5746 383.213 49.4726 383.553 49.3501 383.892C49.2889 384.072 49.2276 384.252 49.1664 384.431H49.146V384.471ZM41.6551 365.241C40.4304 367.038 39.6752 369.135 39.6344 371.291C39.5936 374.407 41.2469 377.602 43.9615 379.599C45.1658 380.497 46.4517 381.056 47.7376 381.276C47.8193 381.016 47.9009 380.737 47.9825 380.497C48.1458 380.018 48.3091 379.499 48.452 378.98C46.7783 377.023 45.3699 374.886 44.2065 372.649C43.0226 370.313 42.1654 367.817 41.6143 365.261L41.6551 365.241ZM64.7401 382.574C66.5975 383.093 68.4549 383.553 70.3532 383.912C70.5777 383.293 70.6798 382.654 70.6594 381.995C70.6185 381.076 70.4961 380.158 70.3124 379.279C69.4143 380.437 68.1079 381.376 66.4955 382.015C65.924 382.235 65.3524 382.434 64.7605 382.554L64.7401 382.574ZM51.2075 382.235C51.7178 382.734 52.2281 383.213 52.7588 383.692C53.7589 383.173 54.657 382.215 55.0856 381.216C54.9019 381.136 54.7386 381.056 54.5549 380.957C53.6568 380.517 52.7996 379.938 52.0035 379.279C51.8607 379.459 51.7178 379.659 51.6157 379.898C51.2483 380.657 51.1463 381.436 51.2483 382.195H51.2279V382.235H51.2075ZM115.156 382.255C115.278 382.534 115.38 382.834 115.503 383.153C117.319 381.995 118.85 380.737 120.116 379.399C118.687 380.477 117.054 381.416 115.156 382.295V382.255ZM102.807 372.31C106.175 374.087 110.257 376.943 112.4 380.877C114.441 379.918 116.074 378.86 117.483 377.562C118.136 376.963 118.728 376.304 119.238 375.585C118.074 371.511 115.544 367.757 111.91 364.701C109.726 368.376 106.379 370.832 102.787 372.31H102.807ZM62.7602 365.56C60.9436 365.56 59.1475 365.86 57.4329 366.698C55.2693 367.757 53.8201 369.654 53.5548 371.751C53.0037 376.264 57.5758 379.119 61.5152 380.677C61.658 380.717 61.7601 380.777 61.903 380.837C63.393 380.717 64.8422 380.318 66.2097 379.659C68.4345 378.58 70.1287 376.823 71.0267 374.626C70.7002 373.408 70.292 372.23 69.7817 371.092C69.1693 369.674 68.3937 368.356 67.516 367.138C66.4955 366.718 65.5566 366.219 64.6993 365.64C64.0461 365.56 63.393 365.54 62.7398 365.54H62.7194H62.7602V365.56ZM56.8206 380.258C57.0655 380.357 57.3104 380.417 57.5554 380.497C57.3104 380.338 57.0451 380.198 56.8206 380.018V380.258ZM41.2673 363.703C41.8796 367.018 43.0022 370.253 44.5739 373.288C45.7986 375.585 47.2682 377.801 49.0031 379.818C49.146 379.339 49.2889 378.86 49.4113 378.381C49.5338 377.981 49.6358 377.582 49.7583 377.182C47.1253 374.187 45.2679 370.193 44.5943 365.8C44.3698 364.242 44.2677 362.665 44.3494 361.107C43.2267 361.826 42.1858 362.705 41.2877 363.703H41.2673ZM53.4323 378.5C54.0038 378.92 54.6162 379.279 55.2081 379.579C55.106 379.339 54.9632 379.139 54.7386 378.94C54.3508 378.62 53.8814 378.44 53.4119 378.5H53.4323ZM51.432 376.783C51.6157 376.963 51.7994 377.162 51.9831 377.322C52.2689 377.182 52.5342 377.063 52.8608 377.023C53.0649 376.983 53.269 376.943 53.4731 376.943C52.8608 376.104 52.4322 375.205 52.2076 374.267C51.9219 375.086 51.677 375.944 51.432 376.783ZM45.9006 360.228C45.7577 362.006 45.7985 363.803 46.0843 365.58C46.6558 369.334 48.1254 372.769 50.2482 375.425C51.2075 372.21 52.3914 369.035 54.4325 366.359C56.0654 364.202 58.331 362.465 60.8212 361.606C60.6579 361.347 60.515 361.087 60.4129 360.827C57.882 359.449 55.106 358.671 52.3505 358.671C50.0849 358.671 47.8805 359.23 45.9006 360.248V360.228ZM114.645 360.308C119.013 363.883 122.198 368.236 123.83 372.989C125.239 370.513 125.872 367.817 125.586 365.301C124.973 359.909 120.524 356.115 116.564 354.297C116.421 355.256 116.217 356.234 115.911 357.173C115.564 358.311 115.135 359.33 114.645 360.328V360.308ZM69.9654 368.116C70.394 368.895 70.8226 369.694 71.19 370.513C71.3737 370.952 71.5574 371.411 71.7411 371.851C71.8432 370.772 71.7411 369.674 71.4554 368.655C70.9451 368.476 70.4552 368.296 69.9654 368.116ZM88.1926 371.192C89.6417 371.311 91.1113 371.351 92.5605 371.311C94.5404 371.231 96.5815 370.992 98.6431 370.473C94.52 368.795 89.703 367.817 86.1922 369.993C86.8658 370.373 87.519 370.752 88.1926 371.172V371.192ZM72.6596 367.457C76.0479 368.655 79.6199 369.754 83.2734 370.493C83.3143 370.453 83.3347 370.393 83.3959 370.353C79.9464 368.815 76.2316 367.917 72.5168 367.118C72.5576 367.238 72.6188 367.357 72.6596 367.477V367.457ZM89.4785 367.996C92.5197 367.996 95.7447 368.835 98.4389 369.814C102.644 368.715 106.583 366.698 109.032 363.483C107.93 362.844 106.767 362.265 105.501 361.706C101.439 363.523 96.357 364.362 91.7237 364.402C91.6216 364.522 91.54 364.662 91.4175 364.781C89.703 366.698 87.0699 367.437 84.1307 366.818C82.5591 366.479 81.1507 365.8 79.9668 364.901C79.2729 365.48 78.4564 365.979 77.5583 366.359C76.599 366.758 75.6193 367.018 74.5987 367.158C77.64 367.697 80.7425 368.376 83.6409 369.414C85.3554 368.396 87.3557 367.996 89.4376 367.996H89.4785ZM70.6185 366.698C70.6185 366.698 70.6593 366.698 70.6798 366.698H70.6185ZM67.3936 364.482C67.8018 364.562 68.2304 364.642 68.6386 364.721C67.9242 364.282 67.2711 363.763 66.72 363.144C66.4138 363.024 66.1281 362.924 65.8219 362.844C66.373 363.363 66.8833 363.903 67.3936 364.482ZM61.7397 362.944C60.515 363.304 59.3311 363.903 58.2289 364.701C59.6985 364.202 61.209 364.022 62.6786 364.022C62.3316 363.663 62.005 363.324 61.7193 362.944H61.7397ZM70.5777 363.963C72.7413 364.841 75.0477 364.662 77.1501 363.463C78.0278 362.964 78.8034 362.325 79.4974 361.586C78.2931 360.029 77.5175 358.171 77.3542 356.294C77.3542 356.035 77.3542 355.775 77.3134 355.535C76.6194 354.437 76.1704 353.179 75.9254 351.741C75.8234 351.102 75.7826 350.463 75.803 349.844C74.9049 349.844 74.0272 349.944 73.1495 350.104C69.5572 350.783 65.7811 353.519 66.0056 357.832C66.1077 359.29 66.6792 360.728 67.6385 361.846C68.1284 362.085 68.5978 362.345 69.0673 362.665C69.598 363.044 70.1083 363.463 70.5369 363.943H70.5777V363.963ZM81.5181 361.566C82.6407 362.705 84.0287 363.563 85.5391 363.963C86.9883 364.362 89.6826 364.622 91.7033 362.006C88.4987 361.886 85.2329 361.247 82.4774 359.929C82.1713 360.488 81.8651 361.027 81.4773 361.526V361.566H81.5181ZM117.687 353.139C117.768 353.179 117.85 353.259 117.911 353.299C120.279 354.976 122.912 358.471 123.728 363.383C123.851 356.434 121.932 349.165 118.483 344.373C118.319 344.153 118.156 343.953 117.993 343.734C118.054 344.832 118.034 345.93 117.952 347.009C117.87 347.987 117.748 348.886 117.564 349.724C117.687 350.843 117.728 352.001 117.707 353.139H117.687ZM65.9444 331.392C59.3312 331.392 52.4322 335.426 48.5745 342.196C45.4311 347.707 44.2065 354.797 44.9821 361.746C45.8394 360.847 46.7783 360.029 47.7988 359.35C48.3908 353.319 50.983 347.608 54.9428 344.133C57.9024 341.537 61.6172 340.259 65.2912 340.319C65.0871 338.162 65.3933 335.985 66.2097 334.108C66.6588 333.11 67.169 332.251 67.7814 331.452C67.169 331.372 66.5567 331.332 65.9648 331.332V331.372L65.9444 331.392ZM63.9849 361.047C64.4544 361.047 64.9034 361.087 65.3729 361.167C64.8626 360.148 64.5768 359.07 64.5156 357.932C64.3115 354.138 66.5363 351.402 69.3939 349.844C68.5162 349.964 67.6589 350.144 66.8425 350.423C64.1482 351.342 61.9846 353.419 61.3314 355.715C60.964 356.993 61.0457 358.331 61.5764 359.649C62.3112 360.069 63.046 360.548 63.74 361.067H64.0257H63.9849V361.047ZM85.3554 356.913C86.825 357.872 88.6212 358.291 90.3357 358.311C90.9276 356.434 90.7031 354.118 89.6621 352.36C88.2538 351.961 86.825 351.641 85.4166 351.322C85.682 352.54 85.784 353.798 85.682 355.016C85.6207 355.655 85.5187 356.274 85.3554 356.913ZM93.4586 355.516C94.7037 357.073 94.9486 358.87 94.1526 360.468C98.0511 360.348 102.256 359.729 105.746 358.471C105.542 358.391 105.318 358.311 105.113 358.251C101.399 356.993 97.4388 356.155 93.4586 355.516ZM79.1912 357.792C79.477 358.711 79.9056 359.569 80.4771 360.388C80.722 360.029 80.9466 359.669 81.1507 359.25C80.4363 358.83 79.7831 358.331 79.1912 357.792ZM110.257 357.213C111.359 357.872 112.421 358.571 113.441 359.33C113.849 358.491 114.196 357.592 114.503 356.654C114.809 355.675 115.013 354.677 115.115 353.658C114.829 353.558 114.543 353.439 114.258 353.359C113.155 354.837 111.788 356.135 110.257 357.193V357.213ZM54.1875 352.54C56.0245 352.54 57.8411 352.8 59.5557 353.299C59.372 352.66 59.474 352.081 59.6781 351.641C60.2701 350.303 62.0867 349.145 64.4135 348.606C66.72 348.087 69.2306 348.167 71.4554 348.267C71.4554 348.207 71.4962 348.147 71.4962 348.107C71.0676 348.107 70.6594 348.107 70.2307 348.067C68.0263 347.827 66.2301 346.969 65.1687 345.571C64.883 345.191 64.6585 344.792 64.5156 344.373C61.3927 344.313 58.1677 344.912 55.5755 346.21C52.3709 347.807 50.2482 350.383 49.595 353.159C51.0238 352.76 52.5546 352.54 54.1467 352.54H54.1875ZM78.8442 355.076C79.5994 356.155 80.5996 357.073 81.7426 357.812C81.9671 357.133 82.1304 356.454 82.2121 355.735C82.3958 353.978 82.1508 352.161 81.5181 350.423C81.0078 350.343 80.5179 350.264 80.0281 350.184C79.3137 351.721 78.8851 353.359 78.8238 355.076H78.8442ZM92.9892 350.923C97.8266 351.981 102.623 353.359 107.134 355.555C107.685 355.815 108.236 356.095 108.767 356.394C110.257 355.436 111.604 354.277 112.686 352.939C109.053 352.001 105.256 351.741 101.521 351.502L93.0096 350.943L92.9892 350.923ZM77.3338 349.884C77.3338 350.423 77.3338 350.962 77.4359 351.502C77.4767 351.821 77.5583 352.161 77.64 352.46C77.8237 351.621 78.1094 350.783 78.436 349.964C78.0686 349.924 77.7012 349.884 77.3338 349.864V349.884ZM115.135 352.041H115.197V351.901C115.197 351.941 115.156 351.981 115.135 352.021V352.041ZM91.642 349.205L101.235 349.924C104.542 350.184 108.195 350.443 111.645 351.562C112.094 350.763 112.461 349.864 112.747 348.946C112.543 347.767 112.216 346.609 111.747 345.531C110.237 341.956 107.706 339.52 104.399 338.422C99.7453 336.884 93.9281 338.162 89.1927 341.717C87.8251 342.755 86.3964 344.093 85.1921 345.651C87.8251 346.449 89.9887 347.628 91.642 349.185V349.205ZM82.4774 348.666L87.3965 348.985C85.8453 348.167 84.0287 347.488 81.9671 346.989C81.9059 347.088 81.8243 347.168 81.763 347.268C82.008 347.707 82.2733 348.187 82.4774 348.646V348.666ZM77.4971 348.366L79.1504 348.486C79.3749 348.067 79.6403 347.648 79.9056 347.248C79.8648 347.148 79.7831 347.088 79.7219 346.989C79.0688 347.308 78.3544 347.568 77.64 347.747C77.5787 347.967 77.5175 348.167 77.4767 348.406V348.366H77.4971ZM73.2516 345.95C73.6598 346.09 74.1088 346.21 74.5579 346.27C75.2314 346.369 75.8642 346.389 76.5174 346.31C76.5174 346.27 76.5582 346.19 76.5786 346.15C75.5172 346.05 74.415 345.99 73.272 345.97L73.2516 345.95ZM108.992 338.322C111.645 339.78 113.707 341.996 115.115 344.852C115.299 345.231 115.462 345.611 115.625 346.01C115.809 344.532 115.788 343.055 115.503 341.557C113.502 340.219 111.318 339.141 108.992 338.322ZM79.3953 344.093C79.6403 344.353 79.8852 344.612 80.1097 344.892C81.2119 344.053 82.0692 342.895 82.457 341.497C82.5182 341.317 82.5795 341.098 82.5999 340.918C81.3344 341.836 80.2526 342.895 79.3953 344.093ZM71.5166 344.393C73.5577 344.393 75.4764 344.492 77.2726 344.652C77.3338 344.532 77.395 344.432 77.4563 344.333C77.1297 344.033 76.7827 343.754 76.4357 343.494C74.0476 341.677 71.1288 340.598 68.1284 340.259C68.2916 340.838 68.5162 341.417 68.7815 341.936C69.2714 342.895 69.8837 343.753 70.6185 344.412H71.5166V344.393ZM67.7814 338.661C71.2513 338.981 74.5987 340.159 77.3134 342.236C77.6604 342.495 77.987 342.755 78.2727 343.035C79.4157 341.477 80.9058 340.139 82.6815 339.021C82.3345 335.167 78.7013 331.812 74.762 330.274C73.619 329.835 72.4147 329.495 71.2105 329.256C70.2511 330.174 69.3939 331.253 68.7407 332.551C67.8222 334.388 67.4956 336.545 67.7814 338.641V338.661ZM84.2532 339.899C84.2532 340.578 84.1103 341.277 83.9062 341.996C83.7837 342.376 83.6613 342.715 83.5184 343.075C84.5389 342.156 85.6616 341.297 86.9066 340.479C89.9275 338.521 93.3158 337.204 96.6632 336.644C94.52 336.764 92.3564 337.084 90.2132 337.623C87.9068 338.202 85.9269 338.961 84.2532 339.899ZM95.7039 335.846C100.99 335.846 106.134 337.064 110.461 339.4C109.849 337.743 108.849 336.145 107.522 334.727C103.154 330.114 96.6019 327.798 86.8862 327.399C83.0489 327.239 77.048 327.518 72.7821 330.174C73.5577 330.354 74.2925 330.574 75.0478 330.813C78.8034 332.131 82.2733 335.027 82.9265 338.442C84.4165 337.743 86.131 337.164 88.0497 336.724C90.5807 336.125 93.1729 335.846 95.7243 335.846H95.7039Z" fill="#D4A373"/>
</svg>
