<svg width="463" height="435" viewBox="0 0 463 435" fill="none" xmlns="http://www.w3.org/2000/svg">
<path d="M462.64 434.35C462.64 434.49 359.07 434.61 231.33 434.61C103.59 434.61 0 434.49 0 434.35C0 434.21 103.55 434.09 231.33 434.09C359.11 434.09 462.64 434.21 462.64 434.35Z" fill="#263238"/>
<path opacity="0.2" d="M128.9 85.26L42.91 434.35H357.6L241.8 93.73L128.9 85.26Z" fill="#F8F87A"/>
<path d="M240.17 9.57C240.17 4.84 215.55 1 185.17 1C154.79 1 130.49 4.79 130.19 9.48H130.18L123.17 108.95H247.16L240.18 9.56L240.17 9.57Z" fill="#F8F8F8" stroke="black" stroke-width="0.25" stroke-miterlimit="10"/>
<path d="M247.15 108.95C247.15 111.32 219.4 113.23 185.16 113.23C150.92 113.23 123.17 111.31 123.17 108.95C123.17 106.59 150.92 104.67 185.16 104.67C219.4 104.67 247.15 106.59 247.15 108.95Z" fill="#F8F87A"/>
<path d="M155.53 431.13L182.15 424.88H185.15L213.83 431.38C213.83 431.38 213.61 432.65 215.23 433.18V434.35H153.48V433.08C153.48 433.08 155.09 432.76 155.47 431.66L155.54 431.13H155.53Z" fill="#263238"/>
<path d="M171.24 188.88C171.1 188.88 170.98 170.03 170.98 146.79C170.98 123.55 171.1 104.7 171.24 104.7C171.38 104.7 171.5 123.54 171.5 146.79C171.5 170.04 171.38 188.88 171.24 188.88Z" fill="#263238"/>
<path d="M173.42 190.32C173.42 191.56 172.44 192.57 171.23 192.57C170.02 192.57 169.04 191.56 169.04 190.32C169.04 189.08 170.02 188.07 171.23 188.07C172.44 188.07 173.42 189.08 173.42 190.32Z" fill="#FF725E"/>
<path opacity="0.4" d="M247.15 108.95C247.15 111.32 219.4 113.23 185.16 113.23C150.92 113.23 123.17 111.31 123.17 108.95C123.17 106.59 150.92 104.67 185.16 104.67C219.4 104.67 247.15 106.59 247.15 108.95Z" fill="white"/>
<path d="M185.15 104.67H182.15V425.36H185.15V104.67Z" fill="#263238"/>
<path d="M247.15 108.95C247.15 108.95 247.15 108.83 246.99 108.69C246.84 108.54 246.56 108.39 246.18 108.25C245.4 107.97 244.2 107.7 242.65 107.45C239.53 106.95 234.97 106.5 229.33 106.13C218.05 105.39 202.42 104.93 185.16 104.93C167.9 104.93 152.27 105.39 140.99 106.13C135.35 106.5 130.79 106.95 127.67 107.45C126.11 107.7 124.91 107.97 124.14 108.25C123.75 108.39 123.47 108.54 123.33 108.69C123.18 108.83 123.19 108.96 123.17 108.95C123.17 108.95 123.14 108.82 123.29 108.65C123.44 108.48 123.72 108.31 124.11 108.15C124.89 107.83 126.09 107.53 127.65 107.25C130.77 106.69 135.33 106.18 140.97 105.76C152.26 104.92 167.9 104.4 185.17 104.4C202.44 104.4 218.07 104.92 229.36 105.76C235 106.18 239.56 106.68 242.68 107.25C244.24 107.53 245.44 107.83 246.22 108.15C246.61 108.31 246.89 108.48 247.04 108.65C247.19 108.82 247.16 108.96 247.16 108.95H247.15Z" fill="#263238"/>
<path opacity="0.4" d="M185.15 130.1L182.15 123V104.67H185.15V130.1Z" fill="white"/>
<path opacity="0.1" d="M187.79 429.37H167.23C167.09 429.37 167.06 429.16 167.2 429.13L181.27 425.7C181.27 425.7 181.29 425.7 181.3 425.7H184.86C184.86 425.7 184.93 425.71 184.95 425.74L187.93 429.06C188.04 429.18 187.96 429.38 187.79 429.38V429.37Z" fill="white"/>
<path d="M215.27 433.11C215.27 433.25 201.52 433.37 184.57 433.37C167.62 433.37 153.87 433.25 153.87 433.11C153.87 432.97 167.61 432.85 184.57 432.85C201.53 432.85 215.27 432.97 215.27 433.11Z" fill="#455A64"/>
<path d="M185.15 424.83C185.15 424.97 184.47 425.09 183.64 425.09C182.81 425.09 182.13 424.97 182.13 424.83C182.13 424.69 182.81 424.57 183.64 424.57C184.47 424.57 185.15 424.69 185.15 424.83Z" fill="#455A64"/>
<g opacity="0.2">
<path d="M194.2 8.25001C197.66 8.43001 200.38 11.42 200.25 14.97C199.65 30.9 191.79 46.15 182 58.79C171.79 71.97 158.22 83.82 141.69 85.21C139.89 85.36 138.06 85.18 136.36 84.57C130.06 82.29 130.13 76.74 130.37 71.83C131.24 53.91 132.74 34.92 133.72 16.81C133.89 13.74 136.08 11.2 139.01 10.59C155.23 7.23001 173.59 7.20001 194.2 8.25001Z" fill="white"/>
</g>
<path d="M50.42 314.48C50.42 314.48 50.5 314.5 50.65 314.51C50.83 314.52 51.05 314.54 51.32 314.56C51.91 314.61 52.79 314.6 53.91 314.76C56.15 314.99 59.39 315.53 63.18 316.89C66.96 318.24 71.31 320.37 75.6 323.52C77.75 325.09 79.9 326.88 81.97 328.9C84.03 330.93 86.02 333.18 87.86 335.64C89.71 338.09 91.36 340.6 92.87 343.08C94.4 345.55 95.75 348 97.03 350.34C99.54 355.04 101.61 359.38 103.26 363.06C104.9 366.74 106.15 369.76 106.97 371.87C107.37 372.89 107.68 373.7 107.91 374.29C108.01 374.54 108.1 374.75 108.16 374.92C108.22 375.06 108.25 375.13 108.26 375.13C108.26 375.13 108.25 375.05 108.2 374.91C108.14 374.74 108.08 374.53 107.99 374.27C107.8 373.71 107.53 372.87 107.13 371.81C106.36 369.68 105.16 366.64 103.56 362.93C101.95 359.23 99.91 354.86 97.41 350.14C96.14 347.79 94.79 345.33 93.26 342.85C91.75 340.36 90.1 337.83 88.23 335.37C86.38 332.9 84.37 330.63 82.29 328.58C80.2 326.55 78.02 324.75 75.85 323.18C71.51 320.03 67.11 317.91 63.28 316.59C59.45 315.25 56.17 314.76 53.92 314.59C52.8 314.46 51.91 314.49 51.32 314.47C51.05 314.47 50.82 314.47 50.64 314.47C50.49 314.47 50.41 314.47 50.41 314.49L50.42 314.48Z" fill="#263238"/>
<path d="M123.97 274.32C123.97 274.32 123.92 274.4 123.85 274.56C123.77 274.74 123.66 274.98 123.53 275.28C123.24 275.94 122.84 276.87 122.33 278.05C121.76 279.24 121.32 280.77 120.72 282.53C120.45 283.41 120.08 284.34 119.83 285.36C119.57 286.37 119.3 287.44 119.01 288.57C118.37 290.81 117.98 293.31 117.43 295.98C117.14 297.31 117 298.71 116.78 300.14C116.59 301.57 116.31 303.04 116.18 304.56C115.46 310.63 115.06 317.32 114.88 324.36C114.77 331.4 114.93 338.1 115.24 344.19C115.59 350.28 116.04 355.75 116.57 360.34C116.82 362.63 117.07 364.71 117.34 366.52C117.6 368.34 117.8 369.9 118.03 371.18C118.25 372.43 118.42 373.42 118.54 374.11C118.6 374.43 118.65 374.68 118.68 374.87C118.71 375.04 118.74 375.13 118.74 375.13C118.74 375.13 118.74 375.04 118.72 374.87C118.7 374.68 118.66 374.42 118.62 374.1C118.52 373.4 118.38 372.41 118.2 371.16C118 369.88 117.82 368.32 117.59 366.5C117.34 364.68 117.12 362.61 116.89 360.32C116.4 355.74 115.99 350.26 115.66 344.18C115.37 338.1 115.23 331.4 115.34 324.37C115.52 317.35 115.9 310.66 116.6 304.61C116.72 303.09 117 301.63 117.18 300.19C117.4 298.76 117.53 297.36 117.81 296.03C118.34 293.37 118.71 290.86 119.33 288.63C119.61 287.51 119.87 286.44 120.12 285.42C120.36 284.41 120.71 283.48 120.98 282.59C121.55 280.83 121.96 279.3 122.51 278.1C122.99 276.91 123.36 275.97 123.63 275.31C123.75 275.01 123.84 274.76 123.91 274.58C123.97 274.41 124 274.33 123.99 274.33L123.97 274.32Z" fill="#263238"/>
<path d="M112.02 375.13C112.02 375.13 112.08 375.01 112.17 374.77C112.27 374.51 112.4 374.15 112.58 373.68C112.68 373.18 112.83 372.57 112.94 371.83C112.99 371.09 113.12 370.23 113.09 369.27C113.18 365.39 112.19 359.85 110.61 353.15C109.84 349.79 108.87 346.14 108.25 342.15C108.07 341.15 107.89 340.13 107.71 339.1C107.5 338.07 107.29 337.03 107.08 335.97C106.66 333.85 106.17 331.68 105.7 329.46C103.75 320.56 101.49 310.8 99.1 300.56C94.29 280.09 89.94 261.57 86.79 248.13C85.26 241.41 84.02 235.98 83.24 232.2C82.83 230.32 82.55 228.85 82.36 227.85C82.26 227.37 82.19 226.99 82.13 226.72C82.08 226.47 82.05 226.34 82.04 226.34C82.04 226.34 82.04 226.47 82.09 226.73C82.13 227.01 82.19 227.39 82.27 227.87C82.43 228.87 82.67 230.35 83.06 232.24C83.78 236.03 84.97 241.48 86.47 248.2C89.48 261.65 93.85 280.18 98.65 300.66C101.04 310.9 103.32 320.65 105.29 329.54C105.77 331.77 106.27 333.93 106.69 336.04C106.91 337.1 107.12 338.14 107.33 339.16C107.52 340.19 107.7 341.2 107.88 342.19C108.53 346.2 109.52 349.86 110.3 353.21C111.92 359.9 112.95 365.4 112.92 369.26C112.96 370.22 112.85 371.07 112.81 371.81C112.71 372.54 112.58 373.15 112.49 373.65C112.34 374.11 112.22 374.48 112.13 374.74C112.05 374.99 112.01 375.12 112.02 375.12V375.13Z" fill="#263238"/>
<path d="M110.43 375.13C110.43 375.13 110.45 374.93 110.44 374.55C110.44 374.17 110.41 373.61 110.36 372.88C110.26 371.43 110.03 369.35 109.68 366.78C109.01 361.64 107.72 354.57 106.9 346.72C106.51 342.8 106.31 339.04 106.57 335.64C106.71 333.94 106.96 332.34 107.43 330.88C107.89 329.43 108.59 328.13 109.61 327.19C110.63 326.26 111.96 325.8 113.15 325.73C114.34 325.64 115.38 325.81 116.21 325.98C117.86 326.36 118.71 326.72 118.73 326.68C118.73 326.67 118.52 326.58 118.11 326.42C117.91 326.34 117.65 326.24 117.34 326.15C117.03 326.04 116.67 325.94 116.25 325.84C115.42 325.64 114.37 325.44 113.12 325.51C111.88 325.55 110.46 326.03 109.36 327C108.28 327.97 107.54 329.32 107.05 330.79C106.56 332.27 106.28 333.9 106.13 335.61C105.84 339.04 106.03 342.81 106.42 346.75C107.25 354.62 108.58 361.68 109.34 366.81C109.73 369.37 110.01 371.45 110.16 372.89C110.23 373.58 110.29 374.13 110.33 374.55C110.37 374.93 110.39 375.13 110.41 375.13H110.43Z" fill="#263238"/>
<path d="M140.76 276.57C138.26 277.69 136 279.38 133.37 280.17C132.81 280.34 132.02 280.35 131.83 279.8C131.69 279.38 132.03 278.96 132.34 278.66C136.72 274.41 142.45 271.59 148.48 270.64C144.97 266.98 140.98 263.72 136.43 262.72C135.01 263.49 133.69 264.49 132.51 265.59C130.28 267.64 128.39 270.04 126.23 272.15C125.92 272.45 125.6 272.75 125.19 272.91C124.79 273.07 124.29 273.05 123.97 272.76C123.66 272.47 123.6 271.99 123.71 271.58C123.82 271.17 124.08 270.82 124.33 270.48C126.56 267.52 129.15 264.84 132.02 262.49C129.26 262.83 126.32 264.07 123.19 266.55C123.19 266.55 118.45 271.08 118.8 279.7C118.8 279.7 104.73 281.04 104.86 294.71C104.92 300.99 108.6 305.8 113.92 309.31C113.53 303.2 114.86 296.99 117.72 291.58C118.08 290.91 118.72 290.14 119.43 290.41C119.83 290.56 120.05 291.02 120.06 291.45C120.06 291.88 119.9 292.29 119.75 292.69C118.43 296.07 117.31 299.55 116.91 303.16C116.6 305.89 116.73 308.7 117.45 311.34C122.16 313.7 127.65 315.27 132.94 316.13C130.12 312.55 127.73 308.56 126.61 304.15C125.44 299.55 125.77 294.44 128.22 290.37C128.82 289.38 129.81 288.35 130.93 288.61C131.72 288.79 132.24 289.59 132.38 290.38C132.51 291.18 132.34 291.99 132.2 292.79C130.73 300.98 132.53 309.7 137.03 316.69C139.82 317.04 142.19 317.3 144.26 317.37C142.84 314.89 141.49 312.37 140.44 309.72C139.12 306.37 138.31 302.77 138.6 299.18C138.65 298.54 138.74 297.88 139.08 297.34C139.42 296.8 140.07 296.4 140.7 296.53C141.45 296.69 141.86 297.5 142.13 298.22C143.46 301.82 143.91 305.69 145.01 309.36C145.86 312.19 147.19 315.02 149.29 317.03C153.2 316.21 156.29 314.05 159.84 308.97C161.04 307.25 162.07 305.73 162.22 303.59C162.02 300.92 158.8 299.06 156.23 298.29C153.66 297.52 150.9 297.5 148.37 296.62C147.52 296.32 146.55 295.66 146.71 294.78C146.84 294.07 147.62 293.71 148.31 293.52C151.44 292.63 154.86 292.85 157.85 294.12C159.66 294.89 161.29 296.04 162.64 297.47C162.55 294.87 162.05 292.22 161.23 289.63C154.88 286.58 147.43 285.86 140.62 287.7C139.65 287.96 138.64 288.28 137.65 288.09C136.66 287.9 135.72 287 135.89 286C136.09 284.9 137.39 284.44 138.49 284.2C142.62 283.28 146.64 283.45 150.86 283.7C154.65 283.92 157.35 284.54 159.6 285.47C158.19 282.45 156.38 279.62 154.32 277.23C153.87 276.71 153.42 276.18 152.95 275.64C148.94 274.55 144.55 274.88 140.76 276.58V276.57ZM118.41 282.93C118.64 282.8 119.29 282.56 119.56 282.59C119.93 282.63 120.18 283.02 120.18 283.39C120.18 283.76 119.99 284.1 119.77 284.4C119.3 285.05 118.68 285.6 117.98 285.99C117.7 286.14 117.39 286.27 117.08 286.2C116.55 286.08 116.31 285.41 116.46 284.9C116.61 284.38 117.02 283.99 117.42 283.62C117.42 283.62 117.62 283.39 118.41 282.93Z" fill="#455A64"/>
<path d="M158.47 311C158.47 311 158.38 310.84 158.19 310.57C158 310.29 157.69 309.9 157.3 309.39C156.5 308.38 155.28 306.97 153.69 305.32C152.09 303.67 150.11 301.78 147.88 299.72C145.66 297.65 143.17 295.42 140.45 293.21C135 288.79 129.7 285.27 125.77 282.9C123.81 281.71 122.19 280.8 121.06 280.18C120.52 279.89 120.09 279.66 119.75 279.49C119.45 279.34 119.29 279.26 119.28 279.27C119.28 279.28 119.42 279.38 119.71 279.56C120.03 279.75 120.45 280 120.98 280.31C122.08 280.97 123.68 281.91 125.62 283.13C129.51 285.56 134.77 289.1 140.2 293.51C142.92 295.71 145.4 297.93 147.63 299.98C149.87 302.03 151.87 303.89 153.48 305.51C155.1 307.13 156.34 308.51 157.17 309.48C157.56 309.95 157.88 310.32 158.12 310.61C158.34 310.87 158.46 311 158.47 310.99V311Z" fill="#263238"/>
<path d="M136.12 290.09C136.12 290.09 136.03 290.48 135.93 291.2C135.83 291.92 135.7 292.95 135.55 294.24C135.29 296.8 134.91 300.39 135.38 304.34C135.66 306.31 136.02 308.14 136.47 309.81C136.91 311.47 137.52 312.91 138.17 314.04C138.82 315.17 139.48 316 139.96 316.54C140.19 316.82 140.4 317.01 140.53 317.15C140.67 317.28 140.74 317.35 140.75 317.34C140.82 317.28 139.64 316.16 138.4 313.91C137.8 312.78 137.23 311.36 136.81 309.72C136.39 308.08 136.04 306.23 135.76 304.3C135.29 300.41 135.63 296.84 135.82 294.27C135.92 293.04 136.01 292.01 136.07 291.23C136.12 290.51 136.14 290.11 136.12 290.11V290.09Z" fill="#263238"/>
<path d="M146.95 289.72C146.95 289.62 144.77 289.63 142.12 290.02C139.47 290.41 137.37 290.95 137.39 291.05C137.41 291.16 139.54 290.79 142.18 290.4C144.81 290.01 146.96 289.83 146.96 289.72H146.95Z" fill="#263238"/>
<path d="M139.38 279.5C139.38 279.5 138.75 279.67 137.8 280.1C136.85 280.53 135.56 281.19 134.2 282.02C132.84 282.86 131.68 283.71 130.86 284.37C130.05 285.03 129.58 285.47 129.61 285.51C129.68 285.6 131.7 284 134.39 282.35C137.08 280.69 139.42 279.61 139.37 279.5H139.38Z" fill="#263238"/>
<path d="M127.78 284.32C127.78 284.32 127.51 284.54 127.09 285.01C126.67 285.48 126.09 286.2 125.47 287.14C124.21 289.02 122.87 291.93 122.29 295.35C121.68 298.77 121.99 301.96 122.51 304.16C122.77 305.26 123.05 306.14 123.28 306.73C123.51 307.32 123.66 307.63 123.68 307.63C123.75 307.61 123.21 306.31 122.77 304.11C122.32 301.92 122.07 298.79 122.67 295.43C123.25 292.06 124.52 289.19 125.7 287.3C126.88 285.39 127.85 284.38 127.79 284.33L127.78 284.32Z" fill="#263238"/>
<path d="M137.36 270.03C137.36 270.03 137.13 270.12 136.74 270.35C136.35 270.58 135.81 270.93 135.15 271.4C133.84 272.33 132.1 273.72 130.38 275.48C128.66 277.24 127.31 279.01 126.41 280.34C125.96 281.01 125.62 281.56 125.4 281.95C125.18 282.34 125.07 282.56 125.09 282.58C125.14 282.61 125.68 281.78 126.63 280.5C127.58 279.22 128.95 277.49 130.65 275.75C132.35 274.01 134.04 272.6 135.3 271.62C136.56 270.64 137.38 270.08 137.35 270.03H137.36Z" fill="#263238"/>
<path d="M107.79 295.96C107.86 295.97 108.02 294.78 108.61 292.95C109.19 291.12 110.31 288.67 112.16 286.4C114 284.11 116.19 282.55 117.85 281.59C118.63 281.13 119.28 280.74 119.82 280.42C120.28 280.14 120.53 279.97 120.52 279.95C120.51 279.93 120.23 280.05 119.75 280.29C119.27 280.53 118.57 280.89 117.72 281.36C116.01 282.27 113.74 283.83 111.86 286.17C109.97 288.49 108.87 291.02 108.35 292.88C108.08 293.82 107.93 294.59 107.86 295.13C107.79 295.67 107.76 295.97 107.79 295.97V295.96Z" fill="#263238"/>
<path d="M123.83 270.65C123.76 270.58 122.3 272.36 121.41 275.02C120.96 276.33 120.71 277.57 120.59 278.47C120.47 279.37 120.47 279.93 120.52 279.94C120.64 279.96 120.88 277.73 121.77 275.15C122.63 272.55 123.92 270.72 123.83 270.66V270.65Z" fill="#263238"/>
<path d="M30.05 332.79C33.47 329.91 37.52 327.88 41.6 326.04C43.6 325.14 45.61 324.29 47.64 323.48C48.54 323.12 48.48 321.82 47.56 321.55C44.59 320.67 41.06 321.55 38.07 322.74C32.43 325 27.17 328.22 22.57 332.18C22.88 329.68 23.68 327.27 24.86 324.61C26.79 320.26 30.03 315.2 34.44 311.47C34.61 311.47 34.79 311.49 34.96 311.5C38.72 311.78 42.45 312.68 46.22 312.51C46.69 312.49 47.18 312.45 47.58 312.2C47.98 311.96 48.26 311.46 48.11 311.01C47.95 310.55 47.43 310.35 46.97 310.2C44.18 309.36 41.29 308.86 38.39 308.7C41.83 306.77 45.81 305.71 50.27 306.17C63.13 307.51 62.08 314.47 62.08 314.47C62.47 314.08 69.87 308.02 80.67 315.06C88.15 319.93 90.94 325.52 90.82 331.09C89.91 330.29 88.97 329.51 88.04 328.76C84.82 326.14 81.57 323.51 77.93 321.5C74.29 319.5 70.2 318.15 66.04 318.3C65.37 318.32 64.61 318.44 64.24 319C63.86 319.59 64.11 320.41 64.62 320.9C65.13 321.38 65.82 321.6 66.48 321.83C75.67 324.97 83.58 331.66 88.28 340.15C86.78 343.18 84.21 347.6 80.65 352.22C79.07 347.66 77.4 343.11 74.88 339.01C72.11 334.51 68.2 330.54 63.25 328.68C62.56 328.42 61.82 328.2 61.1 328.38C59.63 328.74 59.04 330.67 59.54 332.1C60.04 333.53 61.26 334.56 62.41 335.55C66.12 338.72 69.65 342.16 72.42 346.18C74.57 349.3 76.25 352.79 77.09 356.47C75.02 358.77 72.7 361.02 70.16 363.07C67.07 356.21 62.77 349.9 57.51 344.52C56.94 343.94 56.23 343.32 55.42 343.43C54.52 343.55 53.97 344.57 54.05 345.48C54.13 346.38 54.65 347.18 55.17 347.92C57.76 351.66 60.6 355.32 62.19 359.58C63.16 362.17 63.6 365.06 63.21 367.78C58.29 370.49 52.75 372.29 46.64 372.43C46.64 372.43 43.29 371.2 38.93 367.19C40.5 361.66 42.88 356.37 45.98 351.53C46.39 350.89 46.83 350.12 46.57 349.4C46.24 348.52 44.99 348.33 44.17 348.8C43.36 349.27 42.89 350.15 42.46 350.98C40.25 355.32 38.03 359.66 35.82 363.99C34.2 362.14 32.52 359.9 30.88 357.23C33.14 348.89 38.64 341.46 45.98 336.88C46.72 336.42 47.5 335.96 47.99 335.24C48.48 334.52 48.55 333.43 47.91 332.84C47.22 332.21 46.13 332.43 45.26 332.76C40.16 334.69 36.18 338.93 33.61 343.74C31.72 347.28 30.51 351.13 29.61 355.05C29.4 354.68 29.2 354.31 28.99 353.92C26.35 348.91 24.59 344.93 23.55 341.51C24.83 338.1 27.2 335.11 30 332.75L30.05 332.79Z" fill="#455A64"/>
<path d="M46.68 372.45C46.68 372.45 46.72 372.23 46.75 371.82C46.78 371.36 46.81 370.76 46.86 370.02C46.94 368.4 47.06 366.15 47.2 363.39C47.38 360.6 47.66 357.27 48.35 353.63C48.69 351.82 49.18 349.93 49.56 347.94C49.95 345.96 50.31 343.9 50.68 341.79C51.42 337.57 52.18 333.57 53.23 330.03C54.28 326.49 55.6 323.41 57.01 321C58.41 318.58 59.84 316.82 60.92 315.68C62 314.54 62.67 314 62.64 313.96C62.63 313.95 62.46 314.08 62.14 314.34C61.81 314.59 61.36 315.01 60.79 315.55C59.67 316.65 58.18 318.41 56.73 320.83C55.28 323.25 53.91 326.34 52.83 329.9C51.74 333.47 50.97 337.49 50.23 341.71C49.86 343.82 49.51 345.88 49.12 347.85C48.75 349.83 48.27 351.71 47.94 353.55C47.27 357.22 47.03 360.56 46.89 363.37C46.76 366.18 46.72 368.45 46.7 370.02C46.7 370.77 46.68 371.37 46.68 371.83C46.68 372.24 46.68 372.46 46.7 372.46L46.68 372.45Z" fill="#263238"/>
<path d="M52.24 332.17C52.24 332.17 52.46 332.55 52.94 333.16C53.42 333.78 54.15 334.64 55.1 335.67C56.98 337.74 59.77 340.4 62.84 343.33C65.92 346.25 68.44 349.15 69.95 351.47C71.48 353.78 72.09 355.41 72.17 355.37C72.2 355.37 72.07 354.95 71.77 354.22C71.47 353.5 70.97 352.48 70.23 351.29C68.78 348.89 66.26 345.91 63.17 342.99C60.1 340.05 57.28 337.44 55.35 335.44C54.38 334.45 53.61 333.62 53.09 333.04C52.57 332.46 52.28 332.14 52.25 332.17H52.24Z" fill="#263238"/>
<path d="M32.43 335.47C32.5 335.53 33.37 334.4 35.04 332.87C35.87 332.1 36.93 331.26 38.17 330.41C39.42 329.58 40.85 328.76 42.43 328.06C44.02 327.37 45.59 326.87 47.04 326.51C48.5 326.17 49.84 325.96 50.97 325.87C53.23 325.68 54.65 325.8 54.65 325.71C54.65 325.68 54.3 325.63 53.66 325.57C53.34 325.54 52.95 325.51 52.49 325.51C52.03 325.51 51.51 325.49 50.94 325.54C49.79 325.59 48.43 325.77 46.94 326.09C45.46 326.44 43.85 326.93 42.23 327.63C40.62 328.35 39.17 329.19 37.91 330.05C36.67 330.93 35.61 331.81 34.8 332.63C34.37 333.02 34.04 333.42 33.73 333.75C33.42 334.08 33.17 334.39 32.98 334.65C32.59 335.16 32.39 335.45 32.41 335.47H32.43Z" fill="#263238"/>
<path d="M76.27 332.67C76.27 332.67 76.07 332.41 75.65 332.01C75.23 331.61 74.61 331.03 73.82 330.34C72.25 328.96 70.04 327.09 67.32 325.39C64.6 323.69 61.86 322.61 59.81 322.16C58.79 321.92 57.94 321.81 57.36 321.77C56.77 321.73 56.45 321.74 56.45 321.77C56.45 321.85 57.74 321.93 59.73 322.48C61.73 323.01 64.39 324.11 67.08 325.79C69.76 327.47 72 329.29 73.61 330.6C75.22 331.92 76.23 332.73 76.27 332.68V332.67Z" fill="#263238"/>
<path d="M43.21 315.19C43.21 315.36 46.74 315.08 50.92 316.1C55.1 317.11 58.12 318.98 58.19 318.83C58.22 318.78 57.5 318.27 56.24 317.61C54.98 316.95 53.15 316.17 51.03 315.65C48.91 315.14 46.93 314.99 45.5 315C44.07 315.01 43.2 315.14 43.21 315.19Z" fill="#263238"/>
<path d="M39.47 261.79C39.58 262.96 39.69 264.1 39.79 265.21C40.26 270.35 41.51 275.7 43.47 280.79C44.93 277.08 47.27 273.21 51.32 268.5C55.84 263.25 60.21 258.34 65.98 254.52C67.51 253.51 69.53 252.49 71.05 253.51C72.42 254.43 72.41 256.57 71.51 257.95C70.6 259.33 69.09 260.16 67.67 261C57.77 266.92 50.15 276.51 46.51 287.44C48.62 291.36 51.17 294.97 54.13 298.02C53.99 294.81 54.49 291.58 55.64 288.58C57.54 283.61 61.18 279.34 65.78 276.67C66.8 276.08 68.11 275.58 69.09 276.23C70.32 277.05 69.99 278.94 69.37 280.28C67.53 284.26 64.41 287.52 62.4 291.42C60.39 295.32 58.92 301.21 61.83 304.49C64.53 306.75 67.47 307.27 70.87 307.81C80.87 309.41 86.94 308.23 92.34 304.57C92.34 299.82 90.54 295.03 88.18 290.82C85.11 285.34 81.08 280.42 78.35 274.76C77.8 273.62 77.32 272.23 77.99 271.15C78.55 270.26 79.75 269.95 80.78 270.17C81.81 270.39 82.69 271.03 83.5 271.7C88.04 275.44 91.36 280.49 93.8 285.85C95.74 290.1 97.15 294.55 98.46 299.04C100.73 296.53 103.12 293.45 105.88 289.76C102.76 276.52 94.56 264.49 83.25 256.9C82.15 256.16 81 255.44 80.21 254.37C79.42 253.3 79.09 251.79 79.77 250.65C80.74 249.03 83.08 249.04 84.92 249.46C92.49 251.2 98.88 256.63 102.97 263.23C106.89 269.56 108.86 276.91 109.86 284.29C114.86 277.09 119.26 268.86 121.84 260.63C119.56 256.77 116.39 253.43 112.83 250.69C108.13 247.07 102.76 244.42 97.29 242.13C96.64 241.86 95.97 241.58 95.47 241.09C94.97 240.59 94.68 239.82 94.96 239.17C95.45 238.03 97.09 238.14 98.29 238.48C107.91 241.27 116.72 246.77 123.47 254.17C125.4 243.91 123.93 234.12 116.6 226.9C100.67 211.21 83.09 226.23 83.09 226.23C73.34 216.01 62.62 216.44 62.62 216.44C56.13 217.31 51.33 219.35 47.8 222.21C53.82 221.5 59.93 221.51 65.95 222.25C66.64 222.33 67.34 222.43 67.94 222.77C68.55 223.1 69.04 223.73 69.02 224.42C69 225.13 68.45 225.73 67.81 226.02C67.17 226.31 66.44 226.35 65.73 226.37C60.78 226.51 55.81 226.01 50.87 226.3C48.23 226.45 45.55 226.85 43.03 227.65C39.04 234.13 38.35 242.54 38.65 250.83C46.62 244.83 56.46 241.29 66.44 240.97C67.16 240.95 68.04 241.02 68.37 241.67C68.81 242.52 67.9 243.43 67.06 243.9C63.15 246.1 58.59 246.83 54.43 248.49C48.11 251.02 42.74 255.81 39.46 261.77L39.47 261.79ZM89.27 229.09C90.15 229.04 91.08 229 91.86 229.42C92.64 229.83 93.16 230.88 92.69 231.63C92.42 232.07 91.91 232.29 91.42 232.44C90.16 232.83 88.82 232.94 87.51 232.75C86.91 232.66 86.29 232.5 85.85 232.08C85.41 231.66 85.24 230.91 85.62 230.44C85.89 230.09 86.9 229.61 87.33 229.48C88.76 229.07 89.27 229.1 89.27 229.1V229.09Z" fill="#455A64"/>
<path d="M74.8 308.5C74.8 308.5 74.8 308.43 74.8 308.28C74.78 308.11 74.76 307.91 74.73 307.65C74.66 307.1 74.57 306.29 74.46 305.25C74.25 303.16 74.04 300.14 73.96 296.39C73.88 292.64 73.96 288.18 74.09 283.22C74.2 278.26 74.42 272.82 74.92 267.12C75.92 255.72 77.74 245.5 79.32 238.17C80.1 234.5 80.81 231.55 81.3 229.51C81.54 228.52 81.73 227.74 81.87 227.16C81.92 226.91 81.97 226.71 82.01 226.55C82.04 226.41 82.05 226.34 82.04 226.34C82.04 226.34 82.01 226.41 81.96 226.54C81.91 226.7 81.85 226.9 81.78 227.14C81.62 227.71 81.4 228.49 81.12 229.47C80.58 231.5 79.81 234.44 78.99 238.1C77.33 245.42 75.45 255.65 74.45 267.08C73.95 272.79 73.74 278.25 73.65 283.21C73.54 288.17 73.5 292.65 73.62 296.4C73.74 300.16 74 303.19 74.27 305.27C74.41 306.31 74.52 307.12 74.62 307.66C74.67 307.91 74.7 308.11 74.73 308.28C74.76 308.42 74.78 308.49 74.78 308.49L74.8 308.5Z" fill="#263238"/>
<path d="M75.62 258.44C75.62 258.44 75.73 258.57 75.97 258.77C76.25 259 76.6 259.29 77.02 259.64C77.99 260.43 79.31 261.49 80.91 262.78C84.15 265.46 88.74 269.12 92.79 274.11C94.75 276.64 96.53 279.16 97.98 281.52C99.43 283.89 100.46 286.18 101.09 288.18C101.71 290.19 102 291.87 102.15 293.03C102.3 294.2 102.36 294.85 102.4 294.85C102.42 294.85 102.42 294.69 102.41 294.37C102.39 294.06 102.4 293.6 102.33 293.01C102.23 291.83 101.99 290.12 101.41 288.08C100.81 286.04 99.8 283.7 98.35 281.29C96.9 278.89 95.14 276.37 93.16 273.81C89.06 268.77 84.42 265.14 81.12 262.52C79.45 261.22 78.09 260.19 77.14 259.49C76.7 259.17 76.33 258.9 76.04 258.69C75.79 258.51 75.65 258.42 75.64 258.44H75.62Z" fill="#263238"/>
<path d="M62.87 270.76C62.87 270.76 63.6 270.25 64.7 269.34C65.8 268.43 67.33 267.18 69.05 265.85C70.72 264.59 72.23 263.45 73.5 262.48C74.64 261.62 75.34 261.07 75.3 261.02C75.26 260.97 74.5 261.42 73.31 262.21C72.12 263 70.49 264.14 68.76 265.48C67.03 266.82 65.53 268.11 64.48 269.09C63.43 270.07 62.83 270.72 62.87 270.76Z" fill="#263238"/>
<path d="M59.46 250.23C59.49 250.29 60.48 249.95 62.09 249.42C63.7 248.89 65.94 248.19 68.45 247.54C70.96 246.9 73.26 246.44 74.93 246.14C76.6 245.83 77.64 245.66 77.63 245.59C77.63 245.53 76.57 245.59 74.88 245.81C73.19 246.03 70.86 246.44 68.34 247.09C65.82 247.74 63.58 248.49 61.99 249.11C60.4 249.73 59.45 250.18 59.47 250.24L59.46 250.23Z" fill="#263238"/>
<path d="M78.32 242.07C78.32 242.07 78.89 242.15 79.91 242.25C80.93 242.35 82.41 242.55 84.2 242.93C87.78 243.68 92.62 245.44 97.25 248.6C101.9 251.73 105.29 255.61 107.35 258.63C108.39 260.14 109.14 261.43 109.63 262.33C110.12 263.23 110.38 263.74 110.42 263.72C110.43 263.72 110.39 263.58 110.28 263.33C110.17 263.08 110.03 262.71 109.79 262.24C109.35 261.31 108.64 259.99 107.63 258.44C105.63 255.34 102.23 251.38 97.52 248.21C92.84 245.01 87.91 243.28 84.28 242.61C82.46 242.26 80.97 242.12 79.94 242.07C79.42 242.03 79.02 242.05 78.75 242.04C78.48 242.04 78.34 242.04 78.33 242.07H78.32Z" fill="#263238"/>
<path d="M50.62 237.09C50.62 237.09 51.03 237.07 51.75 236.94C52.47 236.81 53.51 236.63 54.8 236.44C57.38 236.05 60.97 235.66 64.96 235.64C68.94 235.62 72.54 235.97 75.13 236.33C76.42 236.51 77.47 236.67 78.19 236.8C78.91 236.92 79.31 236.97 79.32 236.94C79.32 236.91 78.94 236.8 78.22 236.62C77.51 236.44 76.47 236.23 75.17 236C72.58 235.55 68.96 235.15 64.95 235.16C60.94 235.19 57.32 235.63 54.74 236.1C53.45 236.34 52.41 236.56 51.7 236.75C50.99 236.93 50.6 237.05 50.61 237.08L50.62 237.09Z" fill="#263238"/>
<path d="M114.74 231.8C114.74 231.8 114.38 231.47 113.65 230.95C113.29 230.68 112.84 230.38 112.3 230.06C111.77 229.71 111.14 229.37 110.44 228.99C107.64 227.5 103.43 225.92 98.57 225.51C93.7 225.06 89.29 225.94 86.28 226.91C84.76 227.37 83.55 227.77 82.71 228.06C81.87 228.35 81.41 228.52 81.42 228.55C81.42 228.58 81.91 228.47 82.76 228.24C83.69 227.98 84.91 227.64 86.37 227.23C89.39 226.35 93.73 225.54 98.53 225.98C103.32 226.38 107.49 227.88 110.29 229.28C111 229.63 111.63 229.95 112.17 230.28C112.72 230.58 113.18 230.86 113.55 231.1C114.3 231.57 114.72 231.82 114.74 231.8Z" fill="#263238"/>
<path d="M66.73 221.87C66.72 221.94 67.62 222.11 69.03 222.5C70.44 222.89 72.36 223.54 74.39 224.49C76.41 225.44 78.16 226.48 79.39 227.27C80.63 228.06 81.37 228.59 81.41 228.54C81.45 228.49 80.77 227.87 79.57 227C78.37 226.13 76.63 225.03 74.58 224.06C72.53 223.1 70.56 222.48 69.1 222.17C67.65 221.86 66.73 221.81 66.72 221.86L66.73 221.87Z" fill="#263238"/>
<path d="M138.75 367.46C138.75 368.01 143.22 405.69 130.06 421.07C127.33 424.8 123.8 428.81 119.83 432.98V434.35H107.52V367.46H138.76H138.75Z" fill="#AE7461"/>
<path d="M79.25 367.46C79.25 368.01 74.78 405.69 87.94 421.07C90.67 424.8 94.2 428.81 98.17 432.98V434.35H110.48V367.46H79.24H79.25Z" fill="#AE7461"/>
<path d="M98.47 433.35C98.47 433.16 103.29 433.01 109.24 433.01C115.19 433.01 120.01 433.16 120.01 433.35C120.01 433.54 115.19 433.69 109.24 433.69C103.29 433.69 98.47 433.54 98.47 433.35Z" fill="#263238"/>
<path d="M78.64 376.43C78.64 376.24 92.26 376.09 109.06 376.09C125.86 376.09 139.48 376.24 139.48 376.43C139.48 376.62 125.86 376.77 109.06 376.77C92.26 376.77 78.64 376.62 78.64 376.43Z" fill="#263238"/>
<path d="M78.64 379.72C78.64 379.53 92.26 379.38 109.06 379.38C125.86 379.38 139.48 379.53 139.48 379.72C139.48 379.91 125.86 380.06 109.06 380.06C92.26 380.06 78.64 379.91 78.64 379.72Z" fill="#263238"/>
<path d="M78.64 382.96C78.64 382.77 92.26 382.62 109.06 382.62C125.86 382.62 139.48 382.77 139.48 382.96C139.48 383.15 125.86 383.3 109.06 383.3C92.26 383.3 78.64 383.15 78.64 382.96Z" fill="#263238"/>
<path d="M136.01 348.66C133.68 345.66 130.74 343.28 127.74 341.06C126.27 339.98 124.79 338.92 123.28 337.9C122.61 337.45 122.84 336.36 123.61 336.28C126.1 336.02 128.79 337.34 131.01 338.84C135.19 341.68 138.94 345.26 142.06 349.37C142.16 347.2 141.85 345.03 141.28 342.59C140.34 338.59 138.46 333.78 135.46 329.89C135.32 329.87 135.18 329.85 135.04 329.83C132 329.45 128.91 329.6 125.93 328.84C125.56 328.75 125.18 328.63 124.89 328.36C124.6 328.09 124.45 327.62 124.63 327.27C124.82 326.91 125.26 326.82 125.65 326.78C127.99 326.52 130.36 326.57 132.7 326.91C130.22 324.71 127.2 323.16 123.58 322.83C113.15 321.86 113.02 327.92 113.02 327.92C112.76 327.53 107.7 321.19 98.12 325.38C91.49 328.29 88.49 332.55 87.82 337.3C88.66 336.77 89.51 336.27 90.36 335.78C93.29 334.09 96.24 332.39 99.42 331.29C102.6 330.19 106.05 329.71 109.33 330.52C109.86 330.65 110.45 330.87 110.67 331.41C110.89 331.97 110.57 332.63 110.1 332.95C109.63 333.27 109.05 333.35 108.49 333.43C100.74 334.59 93.51 338.96 88.59 345.37C89.36 348.18 90.8 352.35 93 356.83C94.89 353.23 96.84 349.65 99.42 346.59C102.25 343.23 105.92 340.51 110.11 339.74C110.69 339.63 111.32 339.57 111.86 339.84C112.98 340.39 113.18 342.12 112.59 343.25C111.99 344.38 110.88 345.05 109.82 345.7C106.42 347.78 103.14 350.12 100.38 353.07C98.24 355.36 96.42 358.04 95.24 361.02C96.57 363.31 98.11 365.59 99.85 367.74C103.26 362.44 107.55 357.79 112.49 354.1C113.03 353.7 113.68 353.29 114.31 353.52C115.01 353.77 115.3 354.72 115.12 355.48C114.94 356.24 114.41 356.82 113.89 357.37C111.31 360.11 108.55 362.75 106.69 366.1C105.56 368.13 104.81 370.51 104.74 372.87C108.28 375.97 112.45 378.39 117.3 379.52C117.3 379.52 120.14 379.03 124.16 376.35C123.67 371.41 122.5 366.54 120.7 361.94C120.46 361.33 120.21 360.61 120.52 360.04C120.9 359.35 121.93 359.39 122.51 359.92C123.09 360.45 123.35 361.27 123.57 362.05C124.74 366.08 125.9 370.12 127.07 374.15C128.62 372.85 130.26 371.23 131.94 369.23C131.29 361.8 127.93 354.61 122.72 349.54C122.19 349.03 121.63 348.52 121.35 347.82C121.06 347.13 121.15 346.2 121.74 345.8C122.37 345.38 123.21 345.75 123.86 346.17C127.66 348.64 130.24 352.88 131.63 357.37C132.65 360.68 133.08 364.13 133.25 367.6C133.47 367.32 133.68 367.04 133.9 366.74C136.7 362.93 138.65 359.84 139.95 357.12C139.4 354.02 137.93 351.1 136.02 348.65L136.01 348.66Z" fill="#455A64"/>
<path d="M117.29 379.52C117.29 379.52 117.34 379.34 117.4 378.99C117.46 378.59 117.54 378.08 117.64 377.45C117.84 376.11 118.13 374.18 118.42 371.78C118.7 369.38 118.97 366.5 118.94 363.29C118.93 361.68 118.81 360.01 118.79 358.28C118.76 356.55 118.76 354.75 118.76 352.9C118.76 349.21 118.69 345.69 118.32 342.5C117.95 339.31 117.29 336.48 116.46 334.2C115.64 331.91 114.69 330.18 113.94 329.05C113.56 328.49 113.25 328.06 113.02 327.79C112.8 327.51 112.67 327.37 112.66 327.38C112.62 327.41 113.09 328 113.79 329.14C114.49 330.29 115.38 332.03 116.16 334.3C116.94 336.57 117.56 339.38 117.9 342.54C118.25 345.7 118.3 349.21 118.3 352.89C118.3 354.73 118.3 356.53 118.34 358.27C118.37 360.01 118.49 361.69 118.52 363.28C118.57 366.46 118.33 369.33 118.1 371.73C117.84 374.08 117.63 376.01 117.47 377.41C117.41 378.04 117.36 378.55 117.32 378.96C117.29 379.31 117.28 379.5 117.3 379.5L117.29 379.52Z" fill="#263238"/>
<path d="M118.42 344.51C118.42 344.51 118.12 344.71 117.62 345.11C117.12 345.51 116.39 346.08 115.48 346.76C113.66 348.14 111.03 349.89 108.16 351.89C105.27 353.88 102.86 356 101.4 357.79C100.66 358.68 100.13 359.45 99.81 360C99.48 360.55 99.33 360.88 99.36 360.89C99.43 360.94 100.14 359.7 101.66 358C103.17 356.29 105.57 354.25 108.44 352.27C111.3 350.28 113.91 348.47 115.69 347.02C116.58 346.3 117.28 345.69 117.75 345.24C118.21 344.8 118.45 344.53 118.43 344.51H118.42Z" fill="#263238"/>
<path d="M133.75 350.54C133.75 350.54 133.67 350.25 133.44 349.77C133.22 349.28 132.84 348.6 132.32 347.8C131.28 346.2 129.55 344.12 127.18 342.38C125.99 341.51 124.78 340.81 123.63 340.26C122.47 339.75 121.39 339.34 120.46 339.11C120 338.97 119.57 338.9 119.2 338.83C118.83 338.75 118.5 338.71 118.23 338.69C117.7 338.64 117.4 338.62 117.4 338.65C117.39 338.74 118.56 338.87 120.37 339.43C121.28 339.69 122.32 340.12 123.45 340.65C124.56 341.21 125.75 341.91 126.91 342.76C129.23 344.47 130.96 346.46 132.06 348C133.16 349.54 133.69 350.6 133.77 350.56L133.75 350.54Z" fill="#263238"/>
<path d="M99.2 341.01C99.24 341.07 100.15 340.55 101.61 339.71C103.08 338.88 105.1 337.71 107.46 336.72C109.82 335.73 112.11 335.23 113.77 335.1C115.44 334.96 116.48 335.1 116.49 335.01C116.49 334.98 116.24 334.91 115.77 334.85C115.3 334.78 114.61 334.74 113.75 334.77C112.04 334.82 109.69 335.28 107.28 336.29C104.87 337.29 102.86 338.52 101.43 339.43C100 340.35 99.15 340.96 99.19 341.01H99.2Z" fill="#263238"/>
<path d="M127.96 331.61C127.98 331.56 127.31 331.3 126.18 331.05C125.05 330.8 123.45 330.6 121.68 330.68C119.91 330.77 118.34 331.14 117.24 331.5C116.14 331.86 115.5 332.19 115.52 332.24C115.57 332.4 118.23 331.32 121.7 331.15C125.17 330.97 127.93 331.77 127.96 331.61Z" fill="#263238"/>
<path d="M122.78 247.32C122.67 247.32 122.87 245.24 122.28 241.98C121.71 238.75 120.12 234.31 116.84 230.46C113.56 226.62 109.42 224.35 106.32 223.27C103.2 222.17 101.11 222.04 101.13 221.93C101.13 221.9 101.65 221.91 102.58 222.03C103.51 222.14 104.84 222.41 106.44 222.92C109.62 223.92 113.88 226.18 117.24 230.12C120.59 234.05 122.16 238.62 122.65 241.92C122.91 243.58 122.95 244.94 122.92 245.87C122.89 246.81 122.82 247.32 122.79 247.32H122.78Z" fill="white"/>
<path d="M143.06 269.97C142.95 270.08 141.6 268.74 139.62 267.55C137.65 266.34 135.84 265.75 135.89 265.6C135.91 265.47 137.85 265.85 139.89 267.11C141.94 268.35 143.17 269.9 143.06 269.98V269.97Z" fill="white"/>
<path d="M154.53 281.64C154.38 281.69 154 280.53 152.97 279.52C151.96 278.49 150.8 278.11 150.85 277.96C150.85 277.82 152.21 278.01 153.34 279.15C154.48 280.28 154.67 281.63 154.54 281.64H154.53Z" fill="white"/>
<path d="M160.85 292.9C160.72 292.96 160.44 292.63 160.07 292.27C159.71 291.91 159.38 291.63 159.44 291.49C159.49 291.36 160 291.47 160.43 291.9C160.86 292.33 160.97 292.84 160.84 292.89L160.85 292.9Z" fill="white"/>
<path d="M111.63 275.53C111.49 275.43 113.75 272.74 115.37 268.79C117.03 264.86 117.36 261.36 117.53 261.39C117.59 261.39 117.59 262.27 117.37 263.67C117.16 265.07 116.68 266.98 115.85 268.99C115.01 270.99 113.98 272.67 113.14 273.81C112.3 274.95 111.67 275.57 111.63 275.53Z" fill="white"/>
<g opacity="0.3">
<path d="M122.05 241.43C121.76 236.43 118.89 231.68 115.28 228.22C111.67 224.76 107.15 222.03 102.14 221.96C100.3 221.72 98.5 223.13 97.92 224.9C97.34 226.67 97.82 228.65 98.8 230.23C99.78 231.81 101.22 233.05 102.69 234.18C107.86 238.18 113.75 241.25 119.98 243.21C120.45 243.36 120.98 243.49 121.41 243.26C122.01 242.94 122.09 242.11 122.05 241.43Z" fill="white"/>
</g>
<path d="M214 371.3L200.25 434.58H210.82L234.68 370.92L214 371.3Z" fill="#BA8777"/>
<g opacity="0.3">
<path d="M230.58 381.87L211.77 381.57L213.28 374.23L233.3 375.35L230.58 381.87Z" fill="black"/>
</g>
<path d="M400.17 371.3L413.64 434.35H402.97L379.49 370.92L400.17 371.3Z" fill="#6F4439"/>
<path d="M305.45 371.3L319.63 434.41H308.84L284.77 370.92L305.45 371.3Z" fill="#6F4439"/>
<path d="M336.77 371.3L323.02 434.58H333.59L357.45 370.92L336.77 371.3Z" fill="#AE7461"/>
<path d="M330.11 145.75C330.11 145.75 305.28 144.72 303.79 170.56C302.3 196.4 320.17 239.03 318.47 250.67C316.77 262.31 234.33 236.39 224.31 234.84C214.3 233.28 203.83 241.81 203.83 252.4C203.83 261.14 206.73 338.31 207.74 366.37C207.93 371.7 212.31 375.93 217.65 375.93H332.95L367.41 306.51C367.41 306.51 434.9 238.1 434.9 237.07C434.9 236.04 430.35 138.31 430.35 138.31L343.64 145.51L330.1 145.77L330.11 145.75Z" fill="#692765"/>
<path opacity="0.3" d="M239.26 304.56V264.81C239.26 259.67 244.19 255.9 249.27 257.18C270.61 262.56 319.4 273.99 328.86 268.53C328.86 268.53 335.98 263.14 337 249.93C338.02 236.72 326.51 200.17 326.12 181.23C325.8 165.36 340.07 145.54 340.07 145.54L425.55 138.75C425.55 138.75 417.5 271.84 419.1 274.44C420.7 277.04 362.89 343.5 362.89 343.5L239.26 319.36V304.57V304.56Z" fill="black"/>
<g opacity="0.3">
<path d="M321.1 351.64C319.46 351.45 214.24 346.97 214.24 346.97L213.65 337.66L324.1 335.35L321.09 351.64H321.1Z" fill="black"/>
</g>
<path d="M214.89 375.15C214.89 375.15 214.94 374.62 214.95 373.67C214.95 372.63 214.95 371.28 214.94 369.65C214.91 366.26 214.83 361.57 214.68 356.39C214.53 351.21 214.32 346.52 214.12 343.13C214.02 341.44 213.92 340.06 213.84 339.12C213.76 338.17 213.7 337.65 213.66 337.65C213.63 337.65 213.62 338.18 213.64 339.13C213.67 340.17 213.71 341.52 213.76 343.15C213.87 346.63 214.02 351.27 214.18 356.4C214.34 361.53 214.48 366.18 214.59 369.66C214.66 371.29 214.72 372.64 214.76 373.68C214.81 374.63 214.86 375.15 214.89 375.15Z" fill="#263238"/>
<g opacity="0.3">
<path d="M403.03 384.43H384.56L381.68 376.74H401.35L403.03 384.43Z" fill="black"/>
</g>
<path d="M234.44 306.03C234.44 306.03 234.41 305.75 234.4 305.21C234.4 304.63 234.4 303.85 234.4 302.87C234.42 300.79 234.45 297.87 234.49 294.28C234.62 286.98 234.8 276.99 234.99 265.95C235.05 260.42 235.42 255.13 234.8 250.4C234.49 248.04 233.94 245.83 233.08 243.9C232.26 241.96 231.06 240.36 229.81 239.08C227.25 236.53 224.38 235.48 222.4 235.27C220.39 235.09 219.29 235.47 219.28 235.39C219.28 235.37 219.55 235.3 220.07 235.19C220.6 235.08 221.39 235.01 222.42 235.07C224.45 235.22 227.42 236.24 230.07 238.82C231.36 240.11 232.62 241.74 233.47 243.72C234.36 245.69 234.94 247.94 235.27 250.33C235.92 255.13 235.56 260.43 235.5 265.95C235.25 276.99 235.02 286.98 234.85 294.28C234.74 297.87 234.65 300.79 234.59 302.87C234.55 303.85 234.52 304.62 234.49 305.2C234.46 305.73 234.44 306.01 234.42 306.01L234.44 306.03Z" fill="#263238"/>
<g opacity="0.3">
<path d="M218.82 237.83C213.29 239.38 209.35 244.62 208.01 250.21C206.67 255.8 207.55 261.68 209.01 267.24C209.34 268.49 209.73 269.79 210.68 270.67C212 271.9 214.11 271.94 215.77 271.22C217.42 270.5 218.71 269.14 219.89 267.78C222.41 264.84 224.65 261.66 226.57 258.3C228.07 255.66 229.38 252.86 229.82 249.85C230.25 246.85 229.71 243.6 227.82 241.23C225.93 238.86 221.67 236.77 218.83 237.84" fill="white"/>
</g>
<path d="M309.63 256.78C309.63 256.78 309.39 256.78 308.93 256.73C308.42 256.67 307.77 256.59 306.95 256.49C305.23 256.27 302.75 255.92 299.68 255.46C293.55 254.53 285.11 253.09 275.84 251.21C266.57 249.32 258.24 247.34 252.24 245.8C249.24 245.03 246.82 244.38 245.15 243.91C244.36 243.68 243.72 243.5 243.23 243.36C242.79 243.23 242.57 243.15 242.57 243.13C242.57 243.11 242.81 243.16 243.26 243.26C243.75 243.38 244.4 243.53 245.2 243.72C246.94 244.14 249.36 244.73 252.33 245.45C258.35 246.9 266.69 248.82 275.95 250.71C285.21 252.59 293.63 254.09 299.74 255.11C302.75 255.61 305.21 256.01 306.98 256.3C307.79 256.44 308.45 256.55 308.95 256.64C309.4 256.72 309.63 256.77 309.63 256.79V256.78Z" fill="white"/>
<path d="M315.35 154.49C315.35 154.49 315.22 154.73 314.93 155.17C314.63 155.6 314.22 156.25 313.7 157.09C312.69 158.79 311.34 161.33 310.27 164.7C309.21 168.06 308.42 172.25 308.66 176.91C308.87 181.58 310.1 186.6 311.39 191.85C313.9 202.36 316.18 211.87 317.84 218.81C318.63 222.23 319.28 225.01 319.74 226.99C319.94 227.92 320.11 228.66 320.23 229.22C320.34 229.73 320.38 230 320.37 230.01C320.35 230.01 320.27 229.75 320.13 229.25C319.98 228.7 319.79 227.96 319.54 227.04C319.04 225.06 318.34 222.3 317.48 218.9C315.78 211.96 313.45 202.47 310.88 191.98C309.6 186.73 308.36 181.67 308.18 176.94C307.97 172.21 308.8 167.97 309.92 164.59C311.05 161.2 312.47 158.66 313.53 156.99C314.08 156.16 314.52 155.52 314.85 155.12C315.17 154.71 315.34 154.49 315.36 154.5L315.35 154.49Z" fill="white"/>
<path d="M206.48 252.35C206.48 252.35 206.46 252.09 206.51 251.62C206.55 251.16 206.69 250.49 206.91 249.69C207.36 248.08 208.33 245.93 209.94 243.94C211.56 241.95 213.47 240.56 214.96 239.8C215.7 239.41 216.32 239.15 216.77 239.01C217.21 238.87 217.46 238.8 217.47 238.84C217.5 238.93 216.54 239.29 215.14 240.12C213.74 240.95 211.93 242.34 210.35 244.27C208.78 246.21 207.79 248.26 207.26 249.81C206.73 251.36 206.57 252.37 206.48 252.36V252.35Z" fill="white"/>
<path d="M223.35 307.33C223.35 307.33 187.27 305.66 182.9 312.79C178.54 319.93 183.65 333.58 189.47 335.68C195.29 337.78 336.79 340.93 339.7 336.31C342.61 331.69 351.52 311.28 337.6 308.92C323.69 306.56 223.34 307.32 223.34 307.32L223.35 307.33Z" fill="#692765"/>
<path d="M316.44 307.67C316.44 307.81 290.92 307.93 259.45 307.93C227.98 307.93 202.45 307.81 202.45 307.67C202.45 307.53 227.96 307.41 259.45 307.41C290.94 307.41 316.44 307.53 316.44 307.67Z" fill="#263238"/>
<path d="M322.25 259.23C322.25 259.23 322.22 258.97 322.26 258.51C322.29 258.05 322.41 257.39 322.62 256.59C323.02 254.99 323.9 252.84 325.39 250.8C326.89 248.76 328.67 247.27 330.07 246.4C330.77 245.96 331.36 245.65 331.79 245.48C332.21 245.3 332.45 245.22 332.47 245.25C332.51 245.33 331.6 245.77 330.28 246.71C328.96 247.64 327.27 249.12 325.82 251.11C324.37 253.1 323.47 255.16 322.99 256.7C322.5 258.24 322.36 259.24 322.27 259.23H322.25Z" fill="white"/>
<path d="M306.22 311.04C306.22 311.18 284.34 311.3 257.36 311.3C230.38 311.3 208.49 311.18 208.49 311.04C208.49 310.9 230.37 310.78 257.36 310.78C284.35 310.78 306.22 310.9 306.22 311.04Z" fill="white"/>
<path d="M407.71 376.74C410.63 376.74 413.19 374.15 413.98 370.39C419.59 343.8 441.17 241.7 446.73 217.92C452.26 194.28 456.81 165.05 458.35 154.75C458.7 152.4 457.95 150 456.44 148.69C448.67 141.95 424.53 123.78 413.22 147C399.63 174.89 411.16 212.73 408.69 233.69C406.36 253.48 407.68 266.67 388.89 259.08C371.71 252.15 347.35 239.3 335.15 240.29C326.66 240.98 319.49 244.05 317.68 271.94C316.29 293.35 316.1 347.14 314.41 367.04C313.97 372.22 317 376.75 320.89 376.75H407.72L407.71 376.74Z" fill="#692765"/>
<path d="M315.12 375.92C315.12 375.92 315.1 375.67 315.09 375.18C315.09 374.67 315.08 373.95 315.06 373C315.05 371.07 315.03 368.25 315.01 364.63C315.01 360.99 314.92 356.55 315.02 351.38C315.11 346.21 315.22 340.33 315.33 333.83C315.61 320.83 315.99 305.35 316.67 288.17C316.86 283.88 317.06 279.47 317.27 274.98C317.39 272.73 317.48 270.46 317.7 268.17C317.8 267.02 317.9 265.87 318 264.71C318.17 263.56 318.35 262.41 318.53 261.25C319.32 256.65 320.45 251.91 322.89 247.66L323.84 246.09L324.99 244.64C325.35 244.13 325.83 243.73 326.27 243.3L326.95 242.66L327.72 242.12C329.75 240.69 332.31 239.85 334.87 240.18C334.95 240.18 335.04 240.21 335.12 240.22H335C337.49 239.62 340.13 240.1 342.34 241.23C344.55 242.39 346.44 244.08 347.84 246.1C349.27 248.11 350.12 250.43 350.68 252.76C351.22 255.1 351.44 257.47 351.51 259.82C351.63 264.51 351.39 269.09 351.2 273.59C350.97 278.08 350.75 282.47 350.54 286.76C349.57 303.9 348.69 319.33 347.95 332.29C347.22 345.24 346.63 355.72 346.23 362.98C346.05 366.59 345.91 369.4 345.82 371.33C345.78 372.27 345.75 373 345.73 373.5C345.71 373.99 345.68 374.24 345.68 374.24C345.68 374.24 345.67 373.99 345.68 373.5C345.68 372.99 345.7 372.27 345.72 371.33C345.77 369.42 345.87 366.6 346.03 362.98C346.35 355.73 346.89 345.24 347.59 332.28C348.29 319.32 349.13 303.88 350.06 286.75C350.27 282.46 350.49 278.07 350.71 273.58C350.89 269.09 351.12 264.51 351 259.85C350.93 257.53 350.71 255.19 350.17 252.89C349.62 250.61 348.79 248.35 347.41 246.42C346.06 244.47 344.22 242.83 342.1 241.72C339.97 240.63 337.47 240.19 335.12 240.75H335.07H335C334.93 240.74 334.87 240.72 334.79 240.71C332.4 240.4 329.96 241.19 328.01 242.56L327.27 243.07L326.61 243.69C326.18 244.1 325.71 244.49 325.37 244.98L324.25 246.38L323.33 247.92C320.94 252.08 319.82 256.77 319.03 261.34C318.85 262.49 318.68 263.64 318.51 264.78C318.41 265.93 318.31 267.08 318.21 268.22C317.98 270.5 317.89 272.77 317.77 275.02C317.56 279.51 317.36 283.91 317.16 288.2C316.45 305.37 316.03 320.85 315.71 333.85C315.57 340.35 315.43 346.23 315.32 351.39C315.19 356.55 315.26 361 315.22 364.64C315.2 368.26 315.18 371.08 315.17 373.01C315.16 373.96 315.15 374.68 315.14 375.19C315.14 375.68 315.11 375.93 315.11 375.93L315.12 375.92Z" fill="#263238"/>
<path d="M413.07 186.2C413.07 186.2 412.93 185.82 412.78 185.11C412.62 184.4 412.44 183.37 412.26 182.08C411.9 179.51 411.62 175.92 411.75 171.96C411.89 167.99 412.41 164.43 412.95 161.89C413.22 160.62 413.47 159.6 413.67 158.9C413.87 158.2 414 157.82 414.03 157.83C414.11 157.85 413.74 159.41 413.31 161.95C412.87 164.49 412.41 168.03 412.27 171.97C412.14 175.9 412.36 179.46 412.63 182.03C412.9 184.6 413.16 186.18 413.07 186.19V186.2Z" fill="white"/>
</svg>
