<svg width="31" height="29" viewBox="0 0 31 29" fill="none" xmlns="http://www.w3.org/2000/svg">
<path d="M3.9804 0H27.0215C29.2105 0 31 1.67465 31 3.72244V25.277C31 27.3242 29.2105 28.9977 27.0215 28.9977H3.9804C1.79139 28.9977 0 27.3241 0 25.277V3.72244C0 1.67465 1.79139 0 3.9804 0ZM22.5831 3.22064C21.8145 3.22064 21.1876 3.80944 21.1876 4.52806V7.65175C21.1876 8.37066 21.8145 8.9581 22.5831 8.9581H26.0864C26.8538 8.9581 27.482 8.37066 27.482 7.65175V4.52806C27.482 3.80944 26.8538 3.22064 26.0864 3.22064H22.5831ZM27.4953 12.2628H24.7678C25.0264 13.053 25.1666 13.8864 25.1666 14.7528C25.1666 19.5747 20.8508 23.4857 15.5291 23.4857C10.2088 23.4857 5.89289 19.5747 5.89289 14.7528C5.89289 13.8864 6.03446 13.053 6.29186 12.2628H3.44617V24.5135C3.44617 25.1479 3.99993 25.664 4.67749 25.664H26.2645C26.9427 25.664 27.4953 25.1479 27.4953 24.5135V12.2628ZM15.5292 8.79338C12.0924 8.79338 9.30444 11.3191 9.30444 14.4376C9.30444 17.5528 12.0924 20.0805 15.5292 20.0805C18.968 20.0805 21.756 17.5528 21.756 14.4376C21.756 11.319 18.968 8.79338 15.5292 8.79338Z" fill="#2E5266"/>
</svg>
