<svg width="75" height="67" viewBox="0 0 75 67" fill="none" xmlns="http://www.w3.org/2000/svg">
<path d="M9.63 0.00305176H65.3745C70.6705 0.00305176 75 3.87208 75 8.60317V58.4016C75 63.1313 70.6705 66.9977 65.3745 66.9977H9.63C4.334 66.9977 0 63.1311 0 58.4016V8.60317C0 3.87208 4.334 0.00305176 9.63 0.00305176ZM54.6365 7.44385C52.777 7.44385 51.2603 8.80417 51.2603 10.4644V17.6812C51.2603 19.3422 52.777 20.6994 54.6365 20.6994H63.1123C64.9688 20.6994 66.4887 19.3422 66.4887 17.6812V10.4644C66.4887 8.80417 64.9688 7.44385 63.1123 7.44385H54.6365ZM66.521 28.3342H59.922C60.5478 30.16 60.887 32.0853 60.887 34.0871C60.887 45.2274 50.4455 54.263 37.5705 54.263C24.6987 54.263 14.257 45.2274 14.257 34.0871C14.257 32.0853 14.5995 30.16 15.2222 28.3342H8.3375V56.6377C8.3375 58.1034 9.67725 59.2958 11.3165 59.2958H63.5433C65.184 59.2958 66.521 58.1034 66.521 56.6377V28.3342ZM37.5708 20.3188C29.2558 20.3188 22.5107 26.154 22.5107 33.3588C22.5107 40.5561 29.2558 46.3959 37.5708 46.3959C45.8903 46.3959 52.6355 40.5561 52.6355 33.3588C52.6355 26.1538 45.8903 20.3188 37.5708 20.3188Z" fill="#2E5266"/>
</svg>
