<svg width="75" height="67" viewBox="0 0 75 67" fill="none" xmlns="http://www.w3.org/2000/svg">
<g clip-path="url(#clip0_30_210)">
<path d="M9.63 0.00299072H65.3745C70.6705 0.00299072 75 3.87202 75 8.60311V58.4015C75 63.1313 70.6705 66.9976 65.3745 66.9976H9.63C4.334 66.9976 0 63.1311 0 58.4015V8.60311C0 3.87202 4.334 0.00299072 9.63 0.00299072ZM54.6365 7.44379C52.777 7.44379 51.2603 8.80411 51.2603 10.4644V17.6812C51.2603 19.3421 52.777 20.6993 54.6365 20.6993H63.1123C64.9688 20.6993 66.4887 19.3421 66.4887 17.6812V10.4644C66.4887 8.80411 64.9688 7.44379 63.1123 7.44379H54.6365ZM66.521 28.3342H59.922C60.5478 30.1599 60.887 32.0853 60.887 34.087C60.887 45.2273 50.4455 54.2629 37.5705 54.2629C24.6987 54.2629 14.257 45.2273 14.257 34.087C14.257 32.0853 14.5995 30.1599 15.2222 28.3342H8.3375V56.6376C8.3375 58.1034 9.67725 59.2958 11.3165 59.2958H63.5433C65.184 59.2958 66.521 58.1034 66.521 56.6376V28.3342ZM37.5708 20.3187C29.2558 20.3187 22.5107 26.154 22.5107 33.3587C22.5107 40.5561 29.2558 46.3958 37.5708 46.3958C45.8903 46.3958 52.6355 40.5561 52.6355 33.3587C52.6355 26.1538 45.8903 20.3187 37.5708 20.3187Z" fill="white"/>
</g>
<defs>
<clipPath id="clip0_30_210">
<rect width="75" height="67" fill="white"/>
</clipPath>
</defs>
</svg>
