<svg width="99" height="81" viewBox="0 0 99 81" fill="none" xmlns="http://www.w3.org/2000/svg">
<g clip-path="url(#clip0_54_977)">
<path d="M42.927 0.51846C29.6771 2.62468 19.1646 11.5098 16.9585 22.4282C15.6455 28.9512 17.177 35.3786 21.1549 40.8231C21.6093 41.4446 21.9668 41.9323 22.7772 43.0381L22.9642 43.2932C31.0378 54.3067 34.5617 59.4138 38.2542 65.8863L45.7616 79.052C47.2426 81.6491 51.7561 81.6496 53.2378 79.0526L59.9988 67.2027C63.7283 60.6597 67.262 55.4779 75.3114 44.3333L75.5168 44.049C76.712 42.3943 77.2839 41.6012 77.9673 40.6504C80.9202 36.546 82.5007 31.8635 82.5007 26.9986C82.5009 10.0527 63.6882 -2.77574 42.927 0.51846ZM70.8567 37.2274C70.1764 38.1741 69.6064 38.9641 68.4143 40.6146L68.2089 40.8989C60.0246 52.2304 56.4015 57.543 52.5226 64.3483L49.5012 69.6439L45.7306 63.0316C41.8778 56.2781 38.2584 51.0328 30.0396 39.8211L29.8527 39.5659C29.043 38.4614 28.6872 37.9757 28.2355 37.3582C25.2523 33.2752 24.1057 28.4619 25.0988 23.5269C26.7432 15.3882 34.6427 8.71157 44.4993 7.14468C60.1468 4.66192 74.2508 14.2792 74.2508 26.9982C74.2508 30.6512 73.0688 34.1526 70.8567 37.2274Z" fill="white"/>
<path d="M49.5001 16.8732C42.6637 16.8732 37.1247 21.405 37.1247 26.9985C37.1247 32.5919 42.6637 37.1238 49.5001 37.1238C56.3365 37.1238 61.8755 32.5919 61.8755 26.9985C61.8755 21.405 56.3365 16.8732 49.5001 16.8732ZM49.5001 30.3735C47.2201 30.3735 45.375 28.8639 45.375 26.9985C45.375 25.133 47.2201 23.6234 49.5001 23.6234C51.7801 23.6234 53.6251 25.133 53.6251 26.9985C53.6251 28.8639 51.7801 30.3735 49.5001 30.3735Z" fill="white"/>
</g>
<defs>
<clipPath id="clip0_54_977">
<rect width="99" height="81" fill="white"/>
</clipPath>
</defs>
</svg>
