<svg width="66" height="81" viewBox="0 0 66 81" fill="none" xmlns="http://www.w3.org/2000/svg">
<path d="M26.4281 0.518399C13.1781 2.62462 2.66565 11.5097 0.459548 22.4281C-0.8534 28.9512 0.67805 35.3785 4.65596 40.8231C5.11036 41.4445 5.4679 41.9323 6.27829 43.038L6.46527 43.2932C14.5388 54.3067 18.0627 59.4138 21.7552 65.8862L29.2626 79.0519C30.7436 81.6491 35.2571 81.6495 36.7389 79.0526L43.4999 67.2026C47.2293 60.6596 50.7631 55.4779 58.8125 44.3332L59.0178 44.0489C60.213 42.3942 60.785 41.6012 61.4683 40.6503C64.4212 36.5459 66.0018 31.8635 66.0018 26.9986C66.002 10.0526 47.1893 -2.7758 26.4281 0.518399ZM54.3577 37.2273C53.6775 38.1741 53.1074 38.964 51.9153 40.6146L51.71 40.8989C43.5256 52.2303 39.9025 57.543 36.0236 64.3483L33.0023 69.6438L29.2317 63.0315C25.3789 56.2781 21.7595 51.0327 13.5407 39.821L13.3537 39.5658C12.5441 38.4614 12.1883 37.9757 11.7366 37.3582C8.75336 33.2752 7.60671 28.4618 8.59983 23.5269C10.2442 15.3882 18.1437 8.7115 28.0003 7.14461C43.6478 4.66186 57.7519 14.2791 57.7519 26.9981C57.7519 30.6511 56.5698 34.1526 54.3577 37.2273Z" fill="#2E5266"/>
<path d="M33.0012 16.8732C26.1647 16.8732 20.6258 21.405 20.6258 26.9985C20.6258 32.5919 26.1647 37.1238 33.0012 37.1238C39.8376 37.1238 45.3765 32.5919 45.3765 26.9985C45.3765 21.405 39.8376 16.8732 33.0012 16.8732ZM33.0012 30.3735C30.7212 30.3735 28.8761 28.8639 28.8761 26.9985C28.8761 25.133 30.7212 23.6234 33.0012 23.6234C35.2811 23.6234 37.1262 25.133 37.1262 26.9985C37.1262 28.8639 35.2811 30.3735 33.0012 30.3735Z" fill="#2E5266"/>
</svg>
