<svg width="35" height="41" viewBox="0 0 35 41" fill="none" xmlns="http://www.w3.org/2000/svg">
<path d="M14.0145 0.262401C6.98821 1.32852 1.41356 5.82593 0.243693 11.3525C-0.452548 14.6544 0.359562 17.9077 2.469 20.6636C2.70997 20.9782 2.89956 21.2251 3.32931 21.7848L3.42846 21.9139C7.70978 27.4887 9.57846 30.0738 11.5365 33.3499L15.5176 40.0141C16.303 41.3287 18.6965 41.329 19.4822 40.0144L23.0675 34.0163C25.0452 30.7044 26.9191 28.0815 31.1876 22.4404L31.2965 22.2965C31.9303 21.4589 32.2336 21.0575 32.596 20.5762C34.1618 18.4986 35 16.1285 35 13.666C35.0001 5.08839 25.024 -1.40504 14.0145 0.262401ZM28.8253 18.8435C28.4646 19.3228 28.1623 19.7226 27.5301 20.5581L27.4212 20.702C23.0811 26.4377 21.1599 29.1268 19.1029 32.5715L17.5007 35.2519L15.5012 31.905C13.4581 28.4866 11.5388 25.8315 7.18048 20.1564L7.08132 20.0272C6.65199 19.4682 6.46332 19.2223 6.22378 18.9098C4.64181 16.843 4.03375 14.4067 4.56039 11.9087C5.43239 7.78911 9.62142 4.40954 14.8483 3.61642C23.1459 2.35972 30.6252 7.22775 30.6252 13.6658C30.6252 15.5148 29.9983 17.2872 28.8253 18.8435Z" fill="#2E5266"/>
<path d="M17.5001 8.54071C13.8749 8.54071 10.9376 10.8346 10.9376 13.6659C10.9376 16.4971 13.8749 18.7911 17.5001 18.7911C21.1254 18.7911 24.0627 16.4971 24.0627 13.6659C24.0627 10.8346 21.1254 8.54071 17.5001 8.54071ZM17.5001 15.3742C16.2911 15.3742 15.3127 14.6101 15.3127 13.6659C15.3127 12.7216 16.2911 11.9575 17.5001 11.9575C18.7092 11.9575 19.6876 12.7216 19.6876 13.6659C19.6876 14.6101 18.7092 15.3742 17.5001 15.3742Z" fill="#2E5266"/>
</svg>
