<svg width="273" height="215" viewBox="0 0 273 215" fill="none" xmlns="http://www.w3.org/2000/svg">
<path d="M110.696 140.8C110.696 142.336 111.037 143.872 111.72 145.408C110.952 146.432 109.672 146.944 107.88 146.944C106.088 146.944 104.552 146.304 103.272 145.024C102.077 143.744 101.48 141.653 101.48 138.752C101.48 132.011 103.528 126.549 107.624 122.368C111.72 118.101 117.181 115.968 124.008 115.968C135.272 115.968 141.971 122.112 144.104 134.4C145.981 128.683 149.053 124.117 153.32 120.704C157.587 117.291 162.579 115.584 168.296 115.584C180.925 115.669 189.075 122.581 192.744 136.32C194.451 130.091 197.48 125.099 201.832 121.344C206.269 117.504 211.517 115.584 217.576 115.584C226.451 115.669 233.064 119.04 237.416 125.696C241.853 132.267 244.072 141.099 244.072 152.192V188.416C244.072 193.365 245.053 197.333 247.016 200.32C249.064 203.307 251.709 204.8 254.952 204.8C262.973 204.8 266.984 196.779 266.984 180.736C267.069 180.224 267.496 179.968 268.264 179.968C269.117 179.968 269.757 180.096 270.184 180.352C271.464 181.291 272.104 183.381 272.104 186.624C272.104 193.792 270.397 199.595 266.984 204.032C263.571 208.469 259.048 210.688 253.416 210.688C245.224 210.688 239.592 207.829 236.52 202.112C233.789 196.907 232.424 189.781 232.424 180.736V152.192C232.424 132.053 227.475 121.984 217.576 121.984C210.237 121.984 204.563 125.227 200.552 131.712C196.627 138.197 194.664 146.816 194.664 157.568V202.112C194.664 204.672 194.024 206.635 192.744 208C191.464 209.28 189.885 209.92 188.008 209.92C186.131 209.92 184.509 209.323 183.144 208.128V152.192C183.144 132.053 178.195 121.984 168.296 121.984C160.445 121.984 154.643 125.781 150.888 133.376C147.133 140.885 145.256 150.997 145.256 163.712V180.096C145.256 190.677 143.549 199.083 140.136 205.312C136.808 211.456 131.731 214.528 124.904 214.528C118.163 214.528 113.085 212.949 109.672 209.792C106.259 206.72 104.552 202.624 104.552 197.504C104.552 190.933 106.685 187.648 110.952 187.648C111.976 187.648 112.872 187.904 113.64 188.416C114.408 188.843 115.048 189.568 115.56 190.592C114.877 192.384 114.536 195.072 114.536 198.656C114.536 202.155 115.432 204.8 117.224 206.592C119.101 208.384 121.448 209.28 124.264 209.28C130.323 209.28 133.352 202.112 133.352 187.776V138.24C133.352 133.291 132.328 129.323 130.28 126.336C128.317 123.349 125.587 121.856 122.088 121.856C118.675 121.856 115.901 123.264 113.768 126.08C111.72 128.811 110.696 133.717 110.696 140.8Z" fill="#2E5266"/>
<path d="M14.688 77.392C14.688 79.0133 14.944 80.592 15.456 82.128C14.944 83.152 13.792 83.664 12 83.664C10.208 83.664 8.672 83.024 7.392 81.744C6.112 80.464 5.472 78.7573 5.472 76.624C5.472 71.76 7.56267 67.28 11.744 63.184C15.84 59.0027 20.8747 55.8453 26.848 53.712C32.9067 51.4933 39.008 50.384 45.152 50.384C73.824 50.384 88.16 60.6667 88.16 81.232C88.16 86.608 86.5387 91.4293 83.296 95.696C80.0533 99.8773 76.256 102.949 71.904 104.912C67.6373 106.875 63.456 107.856 59.36 107.856C64.1387 107.856 68.3627 108.923 72.032 111.056C75.7867 113.189 78.816 115.963 81.12 119.376C83.5093 122.789 85.6853 126.587 87.648 130.768C89.696 134.864 91.7013 139.003 93.664 143.184C95.6267 147.365 97.76 151.163 100.064 154.576C102.368 157.989 105.312 160.763 108.896 162.896C112.565 165.029 116.747 166.096 121.44 166.096C123.573 166.096 125.323 165.669 126.688 164.816C127.968 164.901 128.608 165.627 128.608 166.992C128.608 169.893 125.621 171.344 119.648 171.344C113.675 171.344 108.341 170.235 103.648 168.016C98.9547 165.797 95.1573 162.896 92.256 159.312C89.3547 155.728 86.7093 151.76 84.32 147.408C82.016 143.141 79.84 138.875 77.792 134.608C75.744 130.341 73.568 126.416 71.264 122.832C69.0453 119.248 66.1867 116.347 62.688 114.128C59.1893 111.909 55.1787 110.8 50.656 110.8C48.4373 110.8 47.328 109.605 47.328 107.216C47.328 106.192 47.6693 105.424 48.352 104.912C49.0347 104.4 49.8027 104.144 50.656 104.144C58.592 104.144 64.864 101.84 69.472 97.232C74.08 92.5387 76.384 87.2053 76.384 81.232C76.384 72.8693 73.568 66.6827 67.936 62.672C62.304 58.6613 55.264 56.656 46.816 56.656C38.4533 56.656 30.9867 58.6613 24.416 62.672C17.9307 66.5973 14.688 71.504 14.688 77.392ZM29.536 73.68C29.536 71.12 30.176 69.2 31.456 67.92C32.736 66.5547 34.272 65.872 36.064 65.872C37.856 65.872 39.6053 66.4693 41.312 67.664V124.112C41.312 133.072 39.6053 140.197 36.192 145.488C32.864 150.779 27.7867 153.424 20.96 153.424C14.2187 153.424 9.14133 151.845 5.728 148.688C2.31467 145.616 0.608 141.52 0.608 136.4C0.608 129.829 2.74133 126.544 7.008 126.544C8.032 126.544 8.928 126.8 9.696 127.312C10.464 127.824 11.104 128.549 11.616 129.488C10.9333 131.28 10.592 133.925 10.592 137.424C10.592 140.923 11.488 143.611 13.28 145.488C15.1573 147.28 17.504 148.176 20.32 148.176C26.464 148.176 29.536 142.715 29.536 131.792V73.68Z" fill="#2E5266"/>
</svg>
