<svg width="36" height="23" viewBox="0 0 36 23" fill="none" xmlns="http://www.w3.org/2000/svg">
<path fill-rule="evenodd" clip-rule="evenodd" d="M36 1.6C36 2.02435 35.7893 2.43131 35.4142 2.73137C35.0391 3.03143 34.5304 3.2 34 3.2H2C1.46957 3.2 0.960859 3.03143 0.585786 2.73137C0.210714 2.43131 0 2.02435 0 1.6C0 1.17565 0.210714 0.768687 0.585786 0.468629C0.960859 0.168571 1.46957 0 2 0H34C34.5304 0 35.0391 0.168571 35.4142 0.468629C35.7893 0.768687 36 1.17565 36 1.6ZM36 11.2C36 11.6243 35.7893 12.0313 35.4142 12.3314C35.0391 12.6314 34.5304 12.8 34 12.8H2C1.46957 12.8 0.960859 12.6314 0.585786 12.3314C0.210714 12.0313 0 11.6243 0 11.2C0 10.7757 0.210714 10.3687 0.585786 10.0686C0.960859 9.76857 1.46957 9.6 2 9.6H34C34.5304 9.6 35.0391 9.76857 35.4142 10.0686C35.7893 10.3687 36 10.7757 36 11.2ZM34 22.4C34.5304 22.4 35.0391 22.2314 35.4142 21.9314C35.7893 21.6313 36 21.2243 36 20.8C36 20.3757 35.7893 19.9687 35.4142 19.6686C35.0391 19.3686 34.5304 19.2 34 19.2H2C1.46957 19.2 0.960859 19.3686 0.585786 19.6686C0.210714 19.9687 0 20.3757 0 20.8C0 21.2243 0.210714 21.6313 0.585786 21.9314C0.960859 22.2314 1.46957 22.4 2 22.4H34Z" fill="#2E5266"/>
</svg>
