<svg width="31" height="849" viewBox="0 0 31 849" fill="none" xmlns="http://www.w3.org/2000/svg">
<path d="M19.0597 0.0182734C19.3791 27.4825 1.20001 27.8296 1.51939 55.2939C1.83876 82.7581 20.0178 82.4111 20.3372 109.875C20.6566 137.34 2.4775 137.687 2.79688 165.151C3.11626 192.615 21.2951 192.246 21.6145 219.71C21.9339 247.175 3.75482 247.522 4.0742 274.986C4.39357 302.45 22.5724 302.081 22.8918 329.546C23.2112 357.01 5.0321 357.357 5.35148 384.821C5.67085 412.285 23.8499 411.938 24.1691 439.381C24.4882 466.823 6.30939 467.192 6.62876 494.656C6.94814 522.121 25.127 521.752 25.4464 549.216C25.7658 576.68 7.5867 577.027 7.90608 604.491C8.22545 631.956 26.4045 631.609 26.7239 659.073C27.0433 686.537 8.8644 686.906 9.18378 714.371C9.50315 741.835 27.6822 741.488 28.0016 768.952C28.321 796.416 10.1421 796.785 10.4615 824.25C10.7809 851.714 28.9599 851.367 29.2793 878.831C29.5987 906.295 11.4198 906.664 11.7392 934.129" stroke="#D4A373" stroke-width="2" stroke-miterlimit="10"/>
</svg>
