<svg width="279" height="268" viewBox="0 0 279 268" fill="none" xmlns="http://www.w3.org/2000/svg">
<path opacity="0.2" d="M68.3708 52.8082L13.4207 267.45H214.517L140.517 58.0161L68.3708 52.8082Z" fill="#F8F87A"/>
<path d="M139.476 6.26936C139.476 3.36107 123.743 1 104.329 1C84.9153 1 69.3869 3.33033 69.1952 6.21403H69.1888L64.7092 67.3743H143.942L139.482 6.26321L139.476 6.26936Z" fill="#F8F8F8" stroke="black" stroke-width="0.25" stroke-miterlimit="10"/>
<path d="M143.936 67.3743C143.936 68.8315 126.203 70.0059 104.322 70.0059C82.4421 70.0059 64.7091 68.8254 64.7091 67.3743C64.7091 65.9232 82.4421 64.7427 104.322 64.7427C126.203 64.7427 143.936 65.9232 143.936 67.3743Z" fill="#F8F87A"/>
<path d="M85.3881 265.47L102.399 261.627H104.316L122.643 265.624C122.643 265.624 122.503 266.405 123.538 266.731V267.45H84.0781V266.669C84.0781 266.669 85.107 266.473 85.3498 265.796L85.3945 265.47H85.3881Z" fill="#263238"/>
<path d="M95.4269 116.52C95.3376 116.52 95.2611 104.93 95.2611 90.6405C95.2611 76.3511 95.3376 64.761 95.4269 64.761C95.5162 64.761 95.5927 76.345 95.5927 90.6405C95.5927 104.936 95.5162 116.52 95.4269 116.52Z" fill="#263238"/>
<path d="M96.8204 117.405C96.8204 118.168 96.1942 118.789 95.421 118.789C94.6477 118.789 94.0215 118.168 94.0215 117.405C94.0215 116.643 94.6477 116.022 95.421 116.022C96.1942 116.022 96.8204 116.643 96.8204 117.405Z" fill="#FF725E"/>
<path opacity="0.4" d="M143.936 67.3743C143.936 68.8315 126.203 70.0059 104.322 70.0059C82.4421 70.0059 64.7091 68.8254 64.7091 67.3743C64.7091 65.9232 82.4421 64.7427 104.322 64.7427C126.203 64.7427 143.936 65.9232 143.936 67.3743Z" fill="white"/>
<path d="M104.316 64.7427H102.399V261.923H104.316V64.7427Z" fill="#263238"/>
<path d="M143.936 67.3743C143.936 67.3743 143.936 67.3005 143.834 67.2144C143.738 67.1222 143.559 67.03 143.316 66.9439C142.818 66.7717 142.051 66.6057 141.06 66.452C139.066 66.1446 136.152 65.8679 132.548 65.6404C125.34 65.1854 115.352 64.9025 104.322 64.9025C93.2929 64.9025 83.3049 65.1854 76.0966 65.6404C72.4925 65.8679 69.5785 66.1446 67.5848 66.452C66.5879 66.6057 65.8211 66.7717 65.329 66.9439C65.0798 67.03 64.9008 67.1222 64.8114 67.2144C64.7155 67.3005 64.7219 67.3804 64.7091 67.3743C64.7091 67.3743 64.69 67.2943 64.7858 67.1898C64.8817 67.0853 65.0606 66.9808 65.3098 66.8824C65.8083 66.6856 66.5751 66.5012 67.572 66.329C69.5658 65.9847 72.4797 65.6711 76.0838 65.4129C83.2985 64.8964 93.2929 64.5767 104.329 64.5767C115.365 64.5767 125.353 64.8964 132.568 65.4129C136.172 65.6711 139.086 65.9785 141.079 66.329C142.076 66.5012 142.843 66.6856 143.342 66.8824C143.591 66.9808 143.77 67.0853 143.866 67.1898C143.961 67.2943 143.942 67.3804 143.942 67.3743H143.936Z" fill="#263238"/>
<path opacity="0.4" d="M104.316 80.3786L102.399 76.0131V64.7427H104.316V80.3786Z" fill="white"/>
<path opacity="0.1" d="M106.003 264.388H92.8649C92.7754 264.388 92.7562 264.259 92.8457 264.241L101.837 262.132C101.837 262.132 101.85 262.132 101.856 262.132H104.131C104.131 262.132 104.176 262.138 104.188 262.156L106.093 264.198C106.163 264.271 106.112 264.394 106.003 264.394V264.388Z" fill="white"/>
<path d="M123.564 266.688C123.564 266.774 114.777 266.848 103.945 266.848C93.114 266.848 84.3273 266.774 84.3273 266.688C84.3273 266.602 93.1076 266.528 103.945 266.528C114.783 266.528 123.564 266.602 123.564 266.688Z" fill="#455A64"/>
<path d="M104.316 261.597C104.316 261.683 103.882 261.756 103.351 261.756C102.821 261.756 102.386 261.683 102.386 261.597C102.386 261.511 102.821 261.437 103.351 261.437C103.882 261.437 104.316 261.511 104.316 261.597Z" fill="#455A64"/>
<g opacity="0.2">
<path d="M110.099 5.45774C112.31 5.56842 114.049 7.40686 113.965 9.58961C113.582 19.3844 108.559 28.761 102.303 36.5328C95.7787 44.6367 87.1071 51.9228 76.544 52.7775C75.3937 52.8697 74.2243 52.759 73.138 52.384C69.1121 50.9821 69.1568 47.5696 69.3102 44.5506C69.8662 33.5323 70.8247 21.8561 71.4509 10.721C71.5596 8.83333 72.9591 7.27158 74.8314 6.89652C85.1964 4.83059 96.929 4.81214 110.099 5.45774Z" fill="white"/>
</g>
<path d="M18.2198 193.747C18.2198 193.747 18.2709 193.759 18.3667 193.765C18.4818 193.771 18.6224 193.784 18.7949 193.796C19.1719 193.827 19.7343 193.82 20.45 193.919C21.8814 194.06 23.9519 194.392 26.3738 195.228C28.7893 196.058 31.5691 197.368 34.3105 199.305C35.6844 200.27 37.0583 201.371 38.3811 202.613C39.6975 203.861 40.9692 205.245 42.145 206.757C43.3272 208.263 44.3816 209.807 45.3465 211.332C46.3242 212.85 47.1869 214.357 48.0049 215.796C49.6088 218.685 50.9316 221.354 51.986 223.617C53.034 225.879 53.8328 227.736 54.3568 229.034C54.6124 229.661 54.8105 230.159 54.9575 230.521C55.0214 230.675 55.0789 230.804 55.1173 230.909C55.1556 230.995 55.1748 231.038 55.1812 231.038C55.1812 231.038 55.1748 230.989 55.1428 230.903C55.1045 230.798 55.0661 230.669 55.0086 230.509C54.8872 230.165 54.7147 229.648 54.4591 228.997C53.967 227.687 53.2002 225.818 52.1777 223.537C51.1489 221.262 49.8453 218.575 48.2477 215.673C47.4361 214.228 46.5735 212.715 45.5957 211.19C44.6308 209.659 43.5764 208.104 42.3814 206.591C41.1992 205.072 39.9148 203.677 38.5856 202.416C37.25 201.168 35.8569 200.061 34.4703 199.096C31.6969 197.159 28.8851 195.856 26.4377 195.044C23.9902 194.22 21.8942 193.919 20.4564 193.814C19.7407 193.734 19.1719 193.753 18.7949 193.74C18.6224 193.74 18.4754 193.74 18.3604 193.74C18.2645 193.74 18.2134 193.74 18.2134 193.753L18.2198 193.747Z" fill="#263238"/>
<path d="M65.2203 169.053C65.2203 169.053 65.1884 169.103 65.1437 169.201C65.0925 169.312 65.0223 169.459 64.9392 169.644C64.7539 170.05 64.4982 170.621 64.1723 171.347C63.8081 172.079 63.5269 173.019 63.1435 174.101C62.971 174.643 62.7345 175.214 62.5748 175.842C62.4086 176.463 62.2361 177.12 62.0508 177.815C61.6418 179.193 61.3926 180.73 61.0411 182.371C60.8558 183.189 60.7663 184.05 60.6257 184.929C60.5043 185.808 60.3254 186.712 60.2423 187.647C59.7822 191.379 59.5266 195.492 59.4116 199.821C59.3413 204.15 59.4435 208.269 59.6416 212.014C59.8653 215.758 60.1529 219.122 60.4915 221.944C60.6513 223.352 60.8111 224.631 60.9836 225.744C61.1497 226.863 61.2775 227.822 61.4245 228.609C61.5651 229.377 61.6737 229.986 61.7504 230.41C61.7888 230.607 61.8207 230.761 61.8399 230.878C61.8591 230.982 61.8782 231.038 61.8782 231.038C61.8782 231.038 61.8782 230.982 61.8654 230.878C61.8527 230.761 61.8271 230.601 61.8015 230.404C61.7376 229.974 61.6482 229.365 61.5332 228.597C61.4054 227.81 61.2903 226.85 61.1434 225.731C60.9836 224.612 60.843 223.34 60.696 221.932C60.3829 219.115 60.1209 215.746 59.91 212.008C59.7247 208.269 59.6352 204.15 59.7055 199.827C59.8206 195.511 60.0634 191.398 60.5107 187.678C60.5874 186.743 60.7663 185.845 60.8813 184.96C61.0219 184.081 61.105 183.22 61.2839 182.402C61.6226 180.767 61.8591 179.223 62.2553 177.852C62.4342 177.163 62.6003 176.506 62.7601 175.878C62.9135 175.257 63.1371 174.686 63.3097 174.138C63.6739 173.056 63.9359 172.115 64.2874 171.378C64.5941 170.646 64.8305 170.068 65.0031 169.662C65.0798 169.478 65.1373 169.324 65.182 169.213C65.2203 169.109 65.2395 169.06 65.2331 169.06L65.2203 169.053Z" fill="#263238"/>
<path d="M57.584 231.038C57.584 231.038 57.6223 230.964 57.6798 230.817C57.7437 230.657 57.8268 230.435 57.9418 230.146C58.0057 229.839 58.1016 229.464 58.1719 229.009C58.2038 228.554 58.2869 228.025 58.2677 227.435C58.3252 225.049 57.6926 221.643 56.6829 217.523C56.1909 215.457 55.571 213.213 55.1748 210.76C55.0598 210.145 54.9448 209.518 54.8298 208.884C54.6956 208.251 54.5614 207.612 54.4272 206.96C54.1588 205.656 53.8457 204.322 53.5453 202.957C52.2992 197.485 50.855 191.484 49.3277 185.188C46.254 172.602 43.4742 161.214 41.4613 152.951C40.4836 148.819 39.6912 145.48 39.1927 143.156C38.9307 142 38.7518 141.096 38.6304 140.481C38.5665 140.186 38.5218 139.952 38.4834 139.786C38.4515 139.633 38.4323 139.553 38.4259 139.553C38.4259 139.553 38.4259 139.633 38.4579 139.793C38.4834 139.965 38.5218 140.198 38.5729 140.493C38.6751 141.108 38.8285 142.018 39.0777 143.18C39.5378 145.511 40.2983 148.862 41.2568 152.994C43.1803 161.263 45.9728 172.657 49.0402 185.249C50.5674 191.545 52.0244 197.54 53.2833 203.006C53.59 204.378 53.9096 205.706 54.1779 207.003C54.3185 207.655 54.4527 208.294 54.5869 208.921C54.7083 209.555 54.8234 210.176 54.9384 210.784C55.3538 213.25 55.9864 215.5 56.4848 217.56C57.5201 221.674 58.1783 225.055 58.1591 227.429C58.1847 228.019 58.1144 228.542 58.0888 228.997C58.0249 229.445 57.9418 229.821 57.8843 230.128C57.7885 230.411 57.7118 230.638 57.6543 230.798C57.6031 230.952 57.5776 231.032 57.584 231.032V231.038Z" fill="#263238"/>
<path d="M56.5679 231.038C56.5679 231.038 56.5807 230.915 56.5743 230.681C56.5743 230.448 56.5551 230.103 56.5232 229.655C56.4593 228.763 56.3123 227.484 56.0887 225.904C55.6605 222.743 54.8362 218.396 54.3122 213.57C54.0629 211.16 53.9351 208.848 54.1013 206.757C54.1907 205.712 54.3505 204.728 54.6508 203.83C54.9448 202.939 55.3921 202.139 56.0439 201.562C56.6957 200.99 57.5456 200.707 58.3061 200.664C59.0665 200.608 59.7311 200.713 60.2615 200.818C61.3159 201.051 61.8591 201.273 61.8719 201.248C61.8719 201.242 61.7377 201.186 61.4757 201.088C61.3479 201.039 61.1817 200.977 60.9836 200.922C60.7855 200.854 60.5555 200.793 60.2871 200.731C59.7567 200.608 59.0857 200.486 58.2869 200.529C57.4945 200.553 56.5871 200.848 55.8842 201.445C55.194 202.041 54.7211 202.871 54.408 203.775C54.0949 204.685 53.916 205.687 53.8201 206.739C53.6348 208.848 53.7562 211.166 54.0054 213.588C54.5358 218.427 55.3857 222.768 55.8714 225.922C56.1206 227.496 56.2995 228.775 56.3954 229.661C56.4401 230.085 56.4785 230.423 56.504 230.681C56.5296 230.915 56.5424 231.038 56.5552 231.038H56.5679Z" fill="#263238"/>
<path d="M75.9496 170.438C74.352 171.126 72.9078 172.165 71.2271 172.651C70.8693 172.756 70.3644 172.762 70.243 172.424C70.1536 172.165 70.3708 171.907 70.5689 171.723C73.3679 169.109 77.0295 167.376 80.8829 166.791C78.6399 164.541 76.0901 162.537 73.1826 161.922C72.2751 162.395 71.4316 163.01 70.6776 163.686C69.2525 164.947 68.0448 166.422 66.6645 167.72C66.4664 167.904 66.2619 168.089 65.9999 168.187C65.7443 168.286 65.4248 168.273 65.2203 168.095C65.0222 167.917 64.9838 167.621 65.0541 167.369C65.1244 167.117 65.2906 166.902 65.4503 166.693C66.8754 164.873 68.5304 163.225 70.3645 161.78C68.6007 161.989 66.722 162.752 64.7218 164.277C64.7218 164.277 61.6928 167.062 61.9165 172.362C61.9165 172.362 52.9254 173.186 53.0084 181.591C53.0468 185.452 55.3984 188.41 58.798 190.568C58.5488 186.811 59.3987 182.993 61.2263 179.667C61.4564 179.255 61.8654 178.781 62.3191 178.947C62.5747 179.039 62.7153 179.322 62.7217 179.587C62.7217 179.851 62.6194 180.103 62.5236 180.349C61.6801 182.427 60.9643 184.567 60.7087 186.787C60.5106 188.465 60.5937 190.193 61.0538 191.816C64.0636 193.267 67.5719 194.233 70.9524 194.761C69.1503 192.56 67.623 190.107 66.9073 187.395C66.1596 184.567 66.3705 181.425 67.9361 178.923C68.3196 178.314 68.9522 177.681 69.6679 177.84C70.1727 177.951 70.505 178.443 70.5945 178.929C70.6776 179.421 70.5689 179.919 70.4795 180.411C69.5401 185.446 70.6904 190.808 73.566 195.106C75.3489 195.321 76.8634 195.481 78.1862 195.524C77.2787 193.999 76.416 192.45 75.7451 190.82C74.9016 188.76 74.3839 186.547 74.5693 184.34C74.6012 183.946 74.6587 183.54 74.876 183.208C75.0933 182.876 75.5086 182.63 75.9112 182.71C76.3905 182.809 76.6525 183.307 76.825 183.749C77.6749 185.963 77.9625 188.342 78.6654 190.599C79.2086 192.339 80.0585 194.079 81.4005 195.315C83.8991 194.811 85.8737 193.483 88.1422 190.359C88.9091 189.301 89.5672 188.367 89.6631 187.051C89.5353 185.409 87.4776 184.266 85.8353 183.792C84.193 183.319 82.4293 183.307 80.8126 182.765C80.2694 182.581 79.6495 182.175 79.7518 181.634C79.8349 181.198 80.3333 180.976 80.7742 180.859C82.7744 180.312 84.9599 180.447 86.8706 181.228C88.0272 181.702 89.0688 182.409 89.9315 183.288C89.874 181.689 89.5545 180.06 89.0305 178.468C84.9726 176.592 80.2119 176.15 75.8601 177.281C75.2402 177.441 74.5948 177.638 73.9622 177.521C73.3295 177.404 72.7289 176.851 72.8375 176.236C72.9653 175.559 73.796 175.276 74.499 175.129C77.1382 174.563 79.707 174.668 82.4037 174.821C84.8257 174.957 86.551 175.338 87.9888 175.91C87.0878 174.053 85.9312 172.313 84.6148 170.843C84.3272 170.524 84.0397 170.198 83.7393 169.866C81.1768 169.195 78.3715 169.398 75.9496 170.444V170.438ZM61.6673 174.348C61.8143 174.268 62.2296 174.121 62.4022 174.139C62.6386 174.164 62.7984 174.403 62.7984 174.631C62.7984 174.858 62.6769 175.067 62.5364 175.252C62.236 175.652 61.8398 175.99 61.3925 176.23C61.2136 176.322 61.0155 176.402 60.8174 176.359C60.4787 176.285 60.3253 175.873 60.4212 175.559C60.517 175.24 60.779 175 61.0346 174.772C61.0346 174.772 61.1624 174.631 61.6673 174.348Z" fill="#455A64"/>
<path d="M87.267 191.607C87.267 191.607 87.2094 191.509 87.088 191.343C86.9666 191.171 86.7685 190.931 86.5193 190.617C86.0081 189.996 85.2285 189.129 84.2124 188.115C83.19 187.1 81.9247 185.938 80.4997 184.672C79.081 183.399 77.4898 182.028 75.7517 180.669C72.269 177.951 68.8821 175.787 66.3707 174.33C65.1182 173.598 64.083 173.038 63.3609 172.657C63.0158 172.479 62.7411 172.337 62.5238 172.233C62.3321 172.141 62.2298 172.092 62.2234 172.098C62.2234 172.104 62.3129 172.165 62.4982 172.276C62.7027 172.393 62.9711 172.547 63.3098 172.737C64.0127 173.143 65.0352 173.721 66.2749 174.471C68.7607 175.965 72.122 178.142 75.5919 180.853C77.3301 182.206 78.9149 183.571 80.3399 184.831C81.7713 186.092 83.0494 187.236 84.0782 188.232C85.1134 189.228 85.9058 190.076 86.4362 190.673C86.6854 190.962 86.8899 191.189 87.0433 191.367C87.1839 191.527 87.2606 191.607 87.267 191.601V191.607Z" fill="#263238"/>
<path d="M72.9846 178.75C72.9846 178.75 72.9271 178.99 72.8632 179.433C72.7993 179.875 72.7162 180.509 72.6204 181.302C72.4542 182.876 72.2114 185.083 72.5117 187.512C72.6907 188.723 72.9207 189.848 73.2083 190.875C73.4895 191.896 73.8793 192.781 74.2946 193.476C74.71 194.171 75.1318 194.681 75.4385 195.013C75.5855 195.185 75.7197 195.302 75.8027 195.388C75.8922 195.468 75.9369 195.511 75.9433 195.505C75.9881 195.468 75.234 194.78 74.4416 193.396C74.0582 192.701 73.6939 191.828 73.4256 190.82C73.1572 189.812 72.9335 188.674 72.7546 187.487C72.4542 185.096 72.6715 182.901 72.7929 181.32C72.8568 180.564 72.9143 179.931 72.9527 179.451C72.9846 179.008 72.9974 178.763 72.9846 178.763V178.75Z" fill="#263238"/>
<path d="M79.9053 178.523C79.9053 178.461 78.5122 178.467 76.8188 178.707C75.1253 178.947 73.7834 179.279 73.7962 179.341C73.809 179.408 75.1701 179.181 76.8571 178.941C78.5378 178.701 79.9117 178.59 79.9117 178.523H79.9053Z" fill="#263238"/>
<path d="M75.0678 172.239C75.0678 172.239 74.6653 172.344 74.0582 172.608C73.4511 172.872 72.6268 173.278 71.7577 173.788C70.8886 174.305 70.1473 174.828 69.6233 175.233C69.1057 175.639 68.8054 175.91 68.8245 175.934C68.8693 175.99 70.1601 175.006 71.8791 173.991C73.5981 172.971 75.0934 172.307 75.0615 172.239H75.0678Z" fill="#263238"/>
<path d="M67.6551 175.203C67.6551 175.203 67.4825 175.338 67.2141 175.627C66.9457 175.916 66.5751 176.359 66.1789 176.937C65.3737 178.093 64.5174 179.882 64.1468 181.985C63.757 184.088 63.9551 186.049 64.2874 187.402C64.4535 188.078 64.6325 188.619 64.7794 188.982C64.9264 189.345 65.0223 189.535 65.035 189.535C65.0798 189.523 64.7347 188.724 64.4535 187.371C64.166 186.024 64.0062 184.1 64.3896 182.034C64.7603 179.962 65.5718 178.197 66.3259 177.035C67.0799 175.861 67.6998 175.24 67.6614 175.209L67.6551 175.203Z" fill="#263238"/>
<path d="M73.7769 166.416C73.7769 166.416 73.6299 166.472 73.3807 166.613C73.1315 166.754 72.7864 166.97 72.3647 167.259C71.5275 167.83 70.4156 168.685 69.3165 169.767C68.2174 170.849 67.3547 171.938 66.7796 172.755C66.492 173.167 66.2747 173.506 66.1341 173.745C65.9936 173.985 65.9233 174.12 65.9361 174.133C65.968 174.151 66.3131 173.641 66.9202 172.854C67.5272 172.067 68.4027 171.003 69.489 169.933C70.5754 168.863 71.6553 167.996 72.4605 167.394C73.2657 166.791 73.7897 166.447 73.7705 166.416H73.7769Z" fill="#263238"/>
<path d="M54.8809 182.36C54.9257 182.366 55.0279 181.634 55.4049 180.509C55.7756 179.384 56.4913 177.877 57.6735 176.482C58.8493 175.074 60.2488 174.114 61.3096 173.524C61.808 173.241 62.2234 173.001 62.5684 172.805C62.8624 172.633 63.0222 172.528 63.0158 172.516C63.0094 172.503 62.8304 172.577 62.5237 172.725C62.217 172.872 61.7697 173.094 61.2265 173.383C60.1337 173.942 58.6832 174.901 57.4818 176.34C56.274 177.767 55.5711 179.322 55.2388 180.466C55.0663 181.044 54.9704 181.517 54.9257 181.849C54.8809 182.181 54.8618 182.366 54.8809 182.366V182.36Z" fill="#263238"/>
<path d="M65.1309 166.797C65.0862 166.754 64.1532 167.849 63.5845 169.484C63.2969 170.29 63.1372 171.052 63.0605 171.606C62.9838 172.159 62.9838 172.503 63.0158 172.509C63.0924 172.522 63.2458 171.151 63.8145 169.564C64.3641 167.966 65.1884 166.84 65.1309 166.804V166.797Z" fill="#263238"/>
<path d="M5.20278 205.005C7.38826 203.234 9.97632 201.986 12.5836 200.854C13.8616 200.301 15.1461 199.778 16.4433 199.28C17.0184 199.059 16.9801 198.26 16.3922 198.094C14.4942 197.553 12.2385 198.094 10.3278 198.825C6.72367 200.215 3.36238 202.195 0.422852 204.63C0.62095 203.093 1.13217 201.611 1.88623 199.975C3.11955 197.301 5.19 194.189 8.00811 191.896C8.11675 191.896 8.23177 191.908 8.34041 191.914C10.7432 192.087 13.1267 192.64 15.5359 192.535C15.8362 192.523 16.1493 192.499 16.4049 192.345C16.6606 192.197 16.8395 191.89 16.7436 191.613C16.6414 191.33 16.3091 191.207 16.0151 191.115C14.2323 190.599 12.3855 190.291 10.5323 190.193C12.7305 189.006 15.2739 188.354 18.1239 188.637C26.3418 189.461 25.6709 193.741 25.6709 193.741C25.9201 193.501 30.6489 189.775 37.5504 194.103C42.3303 197.098 44.1132 200.535 44.0365 203.96C43.455 203.468 42.8543 202.988 42.26 202.527C40.2024 200.916 38.1255 199.299 35.7994 198.063C33.4734 196.833 30.8598 196.003 28.2014 196.095C27.7733 196.108 27.2876 196.182 27.0512 196.526C26.8083 196.889 26.9681 197.393 27.294 197.694C27.6199 197.989 28.0608 198.124 28.4826 198.266C34.3552 200.197 39.41 204.31 42.4134 209.53C41.4548 211.393 39.8125 214.111 37.5376 216.952C36.5279 214.148 35.4608 211.35 33.8504 208.829C32.0803 206.062 29.5817 203.621 26.4185 202.478C25.9776 202.318 25.5047 202.183 25.0446 202.293C24.1052 202.515 23.7282 203.701 24.0477 204.581C24.3672 205.46 25.1468 206.093 25.8817 206.702C28.2525 208.651 30.5083 210.766 32.2784 213.238C33.6523 215.156 34.7259 217.302 35.2627 219.565C33.9399 220.979 32.4573 222.362 30.8342 223.623C28.8596 219.405 26.1118 215.525 22.7505 212.217C22.3862 211.861 21.9325 211.479 21.4149 211.547C20.8398 211.621 20.4883 212.248 20.5395 212.807C20.5906 213.361 20.9229 213.853 21.2552 214.308C22.9102 216.607 24.7251 218.858 25.7411 221.477C26.361 223.069 26.6422 224.846 26.393 226.519C23.2489 228.185 19.7087 229.292 15.8043 229.378C15.8043 229.378 13.6635 228.622 10.8774 226.156C11.8806 222.756 13.4015 219.503 15.3825 216.527C15.6445 216.134 15.9257 215.66 15.7595 215.218C15.5486 214.677 14.7499 214.56 14.2259 214.849C13.7082 215.138 13.4079 215.679 13.1331 216.189C11.7209 218.858 10.3022 221.526 8.88997 224.188C7.85475 223.051 6.78118 221.674 5.73318 220.032C7.17738 214.904 10.692 210.336 15.3825 207.52C15.8554 207.237 16.3538 206.954 16.6669 206.511C16.9801 206.069 17.0248 205.398 16.6158 205.036C16.1749 204.648 15.4784 204.783 14.9224 204.986C11.6634 206.173 9.12002 208.78 7.47772 211.738C6.26996 213.914 5.49674 216.281 4.92161 218.692C4.78741 218.464 4.65961 218.237 4.52541 217.997C2.83838 214.916 1.71369 212.469 1.0491 210.366C1.86705 208.27 3.38155 206.431 5.17083 204.98L5.20278 205.005Z" fill="#455A64"/>
<path d="M15.8298 229.39C15.8298 229.39 15.8554 229.255 15.8746 229.003C15.8937 228.72 15.9129 228.351 15.9449 227.896C15.996 226.9 16.0727 225.516 16.1621 223.819C16.2772 222.104 16.4561 220.056 16.897 217.818C17.1143 216.705 17.4274 215.543 17.6702 214.32C17.9195 213.102 18.1495 211.836 18.3859 210.538C18.8588 207.944 19.3445 205.484 20.0155 203.308C20.6864 201.131 21.53 199.237 22.431 197.755C23.3256 196.268 24.2394 195.185 24.9296 194.484C25.6197 193.783 26.0479 193.451 26.0287 193.427C26.0223 193.421 25.9137 193.501 25.7092 193.66C25.4983 193.814 25.2108 194.072 24.8465 194.404C24.1308 195.081 23.1787 196.163 22.2521 197.651C21.3255 199.139 20.45 201.039 19.7599 203.228C19.0633 205.423 18.5713 207.895 18.0984 210.489C17.8619 211.787 17.6383 213.053 17.3891 214.265C17.1526 215.482 16.8459 216.638 16.635 217.769C16.2069 220.026 16.0535 222.079 15.964 223.807C15.881 225.535 15.8554 226.931 15.8426 227.896C15.8426 228.357 15.8298 228.726 15.8298 229.009C15.8298 229.261 15.8298 229.396 15.8426 229.396L15.8298 229.39Z" fill="#263238"/>
<path d="M19.3829 204.624C19.3829 204.624 19.5235 204.857 19.8303 205.232C20.137 205.613 20.6035 206.142 21.2106 206.776C22.4119 208.048 24.1948 209.684 26.1566 211.485C28.1248 213.281 29.7352 215.064 30.7001 216.49C31.6778 217.911 32.0676 218.913 32.1188 218.888C32.1379 218.888 32.0549 218.63 31.8632 218.181C31.6714 217.739 31.3519 217.111 30.8791 216.38C29.9525 214.904 28.3421 213.072 26.3675 211.276C24.4057 209.469 22.6036 207.864 21.3703 206.634C20.7505 206.025 20.2584 205.515 19.9261 205.158C19.5938 204.802 19.4085 204.605 19.3893 204.624H19.3829Z" fill="#263238"/>
<path d="M6.7238 206.652C6.76853 206.689 7.32448 205.994 8.39166 205.054C8.92206 204.58 9.59942 204.064 10.3918 203.541C11.1906 203.031 12.1044 202.527 13.1141 202.096C14.1301 201.672 15.1334 201.365 16.06 201.143C16.993 200.934 17.8493 200.805 18.5714 200.75C20.0156 200.633 20.923 200.707 20.923 200.651C20.923 200.633 20.6993 200.602 20.2904 200.565C20.0859 200.547 19.8367 200.528 19.5427 200.528C19.2487 200.528 18.9165 200.516 18.5522 200.547C17.8173 200.578 16.9483 200.688 15.9961 200.885C15.0503 201.1 14.0215 201.401 12.9863 201.832C11.9574 202.275 11.0308 202.791 10.2257 203.32C9.43328 203.861 8.75591 204.402 8.23829 204.906C7.96351 205.146 7.75263 205.392 7.55453 205.595C7.35644 205.798 7.19668 205.988 7.07526 206.148C6.82604 206.462 6.69824 206.64 6.71102 206.652H6.7238Z" fill="#263238"/>
<path d="M34.7386 204.931C34.7386 204.931 34.6108 204.771 34.3424 204.525C34.074 204.279 33.6778 203.923 33.173 203.498C32.1697 202.65 30.7575 201.5 29.0193 200.455C27.2811 199.41 25.5302 198.746 24.2202 198.469C23.5684 198.321 23.0252 198.254 22.6546 198.229C22.2776 198.205 22.0731 198.211 22.0731 198.229C22.0731 198.278 22.8974 198.327 24.1691 198.666C25.4471 198.992 27.1469 199.668 28.8659 200.701C30.5785 201.734 32.0099 202.853 33.0388 203.658C34.0676 204.47 34.713 204.968 34.7386 204.937V204.931Z" fill="#263238"/>
<path d="M13.6124 194.183C13.6124 194.288 15.8682 194.116 18.5393 194.743C21.2105 195.364 23.1403 196.514 23.1851 196.421C23.2042 196.391 22.7441 196.077 21.939 195.671C21.1338 195.265 19.9644 194.786 18.6096 194.466C17.2549 194.153 15.9896 194.06 15.0758 194.066C14.162 194.073 13.606 194.153 13.6124 194.183Z" fill="#263238"/>
<path d="M11.2226 161.35C11.2929 162.069 11.3632 162.77 11.4271 163.452C11.7274 166.613 12.5262 169.902 13.7787 173.032C14.7117 170.751 16.207 168.371 18.7951 165.475C21.6835 162.247 24.476 159.228 28.1632 156.88C29.1409 156.259 30.4318 155.631 31.4031 156.259C32.2786 156.824 32.2722 158.14 31.697 158.989C31.1155 159.837 30.1506 160.347 29.2432 160.864C22.9168 164.504 18.0474 170.4 15.7213 177.121C17.0697 179.531 18.6992 181.751 20.5907 183.626C20.5013 181.652 20.8208 179.666 21.5557 177.822C22.7698 174.766 25.0959 172.14 28.0354 170.499C28.6872 170.136 29.5243 169.829 30.1506 170.228C30.9366 170.732 30.7257 171.895 30.3295 172.718C29.1537 175.166 27.1599 177.17 25.8755 179.568C24.591 181.966 23.6517 185.587 25.5112 187.604C27.2366 188.994 29.1154 189.314 31.2881 189.646C37.6783 190.629 41.5572 189.904 45.008 187.653C45.008 184.733 43.8577 181.788 42.3496 179.199C40.3878 175.83 37.8125 172.805 36.068 169.324C35.7165 168.623 35.4098 167.769 35.8379 167.105C36.1958 166.558 36.9626 166.367 37.6208 166.502C38.279 166.637 38.8414 167.031 39.359 167.443C42.2602 169.743 44.3817 172.848 45.941 176.143C47.1807 178.756 48.0817 181.493 48.9188 184.253C50.3694 182.71 51.8967 180.816 53.6604 178.547C51.6667 170.407 46.4266 163.01 39.1992 158.343C38.4963 157.888 37.7614 157.445 37.2566 156.787C36.7517 156.129 36.5409 155.201 36.9754 154.5C37.5953 153.504 39.0906 153.51 40.2664 153.768C45.1038 154.838 49.1872 158.177 51.8009 162.235C54.3059 166.127 55.5647 170.646 56.2038 175.184C59.3989 170.757 62.2106 165.697 63.8593 160.636C62.4023 158.263 60.3766 156.209 58.1017 154.525C55.0982 152.299 51.6667 150.67 48.1712 149.261C47.7558 149.095 47.3277 148.923 47.0082 148.622C46.6886 148.315 46.5033 147.841 46.6822 147.441C46.9954 146.741 48.0434 146.808 48.8102 147.017C54.9577 148.733 60.5875 152.114 64.9009 156.664C66.1343 150.356 65.1949 144.336 60.5108 139.897C50.3311 130.25 39.097 139.485 39.097 139.485C32.8665 133.201 26.0161 133.466 26.0161 133.466C21.8688 134.001 18.8014 135.255 16.5457 137.013C20.3926 136.577 24.2971 136.583 28.144 137.038C28.585 137.087 29.0323 137.149 29.4157 137.358C29.8055 137.561 30.1186 137.948 30.1059 138.372C30.0931 138.809 29.7416 139.178 29.3326 139.356C28.9237 139.534 28.4572 139.559 28.0035 139.571C24.8403 139.657 21.6643 139.35 18.5075 139.528C16.8205 139.62 15.1079 139.866 13.4975 140.358C10.9478 144.343 10.5069 149.514 10.6986 154.611C15.7916 150.922 22.0797 148.745 28.4572 148.548C28.9173 148.536 29.4796 148.579 29.6905 148.979C29.9717 149.501 29.3901 150.061 28.8534 150.35C26.3548 151.702 23.4408 152.151 20.7824 153.172C16.7438 154.728 13.3122 157.673 11.2162 161.337L11.2226 161.35ZM43.0462 141.244C43.6085 141.213 44.2028 141.188 44.7013 141.447C45.1997 141.699 45.532 142.344 45.2317 142.805C45.0591 143.076 44.7332 143.211 44.4201 143.303C43.6149 143.543 42.7586 143.611 41.9215 143.494C41.5381 143.439 41.1419 143.34 40.8607 143.082C40.5795 142.824 40.4709 142.363 40.7137 142.074C40.8863 141.859 41.5317 141.563 41.8065 141.483C42.7203 141.231 43.0462 141.25 43.0462 141.25V141.244Z" fill="#455A64"/>
<path d="M33.7995 190.07C33.7995 190.07 33.7995 190.027 33.7995 189.934C33.7867 189.83 33.7739 189.707 33.7548 189.547C33.71 189.209 33.6525 188.711 33.5822 188.071C33.448 186.786 33.3138 184.929 33.2627 182.624C33.2116 180.318 33.2627 177.576 33.3458 174.526C33.4161 171.476 33.5567 168.131 33.8762 164.627C34.5152 157.617 35.6782 151.333 36.6879 146.827C37.1863 144.57 37.6401 142.756 37.9532 141.502C38.1065 140.893 38.228 140.414 38.3174 140.057C38.3494 139.903 38.3813 139.78 38.4069 139.682C38.4261 139.596 38.4324 139.553 38.4261 139.553C38.4261 139.553 38.4069 139.596 38.3749 139.676C38.343 139.774 38.3046 139.897 38.2599 140.045C38.1577 140.395 38.0171 140.875 37.8382 141.477C37.4931 142.725 37.001 144.533 36.477 146.784C35.4162 151.284 34.2149 157.574 33.5758 164.602C33.2563 168.113 33.1221 171.47 33.0646 174.52C32.9943 177.57 32.9688 180.324 33.0454 182.63C33.1221 184.942 33.2883 186.805 33.4608 188.084C33.5503 188.723 33.6206 189.221 33.6845 189.553C33.7164 189.707 33.7356 189.83 33.7548 189.934C33.7739 190.021 33.7867 190.064 33.7867 190.064L33.7995 190.07Z" fill="#263238"/>
<path d="M34.3234 159.29C34.3234 159.29 34.3937 159.37 34.5471 159.493C34.726 159.634 34.9497 159.812 35.2181 160.028C35.8379 160.513 36.6814 161.165 37.7039 161.958C39.7743 163.606 42.7075 165.856 45.2955 168.925C46.548 170.48 47.6855 172.03 48.6121 173.481C49.5387 174.938 50.1969 176.346 50.5995 177.576C50.9957 178.812 51.181 179.845 51.2768 180.558C51.3727 181.277 51.411 181.677 51.4366 181.677C51.4494 181.677 51.4494 181.578 51.443 181.382C51.4302 181.191 51.4366 180.908 51.3919 180.546C51.328 179.82 51.1746 178.769 50.804 177.514C50.4205 176.26 49.7751 174.821 48.8485 173.339C47.9219 171.864 46.7973 170.314 45.532 168.74C42.912 165.641 39.9469 163.409 37.8381 161.798C36.7709 160.999 35.9018 160.366 35.2947 159.935C35.0136 159.739 34.7771 159.573 34.5918 159.443C34.4321 159.333 34.3426 159.277 34.3362 159.29H34.3234Z" fill="#263238"/>
<path d="M26.1758 166.865C26.1758 166.865 26.6422 166.552 27.3452 165.992C28.0481 165.432 29.0258 164.664 30.125 163.846C31.1921 163.071 32.1571 162.37 32.9686 161.774C33.6971 161.245 34.1444 160.907 34.1189 160.876C34.0933 160.846 33.6077 161.122 32.8472 161.608C32.0868 162.094 31.0452 162.795 29.9396 163.619C28.8341 164.443 27.8756 165.236 27.2046 165.838C26.5336 166.441 26.1502 166.84 26.1758 166.865Z" fill="#263238"/>
<path d="M23.9968 154.242C24.0159 154.279 24.6486 154.07 25.6774 153.744C26.7062 153.418 28.1377 152.988 29.7416 152.588C31.3456 152.194 32.8154 151.912 33.8825 151.727C34.9497 151.537 35.6143 151.432 35.6079 151.389C35.6079 151.352 34.9305 151.389 33.8506 151.524C32.7706 151.66 31.2817 151.912 29.6713 152.311C28.061 152.711 26.6296 153.172 25.6135 153.553C24.5975 153.934 23.9904 154.211 24.0032 154.248L23.9968 154.242Z" fill="#263238"/>
<path d="M36.0488 149.225C36.0488 149.225 36.4131 149.274 37.0649 149.335C37.7167 149.397 38.6625 149.52 39.8063 149.754C42.094 150.215 45.1869 151.297 48.1456 153.24C51.1171 155.164 53.2834 157.55 54.5998 159.407C55.2644 160.335 55.7437 161.128 56.0568 161.682C56.3699 162.235 56.5361 162.549 56.5616 162.536C56.568 162.536 56.5425 162.45 56.4722 162.297C56.4019 162.143 56.3124 161.915 56.159 161.626C55.8779 161.055 55.4242 160.243 54.7787 159.29C53.5007 157.384 51.328 154.949 48.3182 153C45.3275 151.032 42.1771 149.969 39.8574 149.557C38.6944 149.342 37.7423 149.255 37.0841 149.225C36.7518 149.2 36.4961 149.212 36.3236 149.206C36.1511 149.206 36.0616 149.206 36.0552 149.225H36.0488Z" fill="#263238"/>
<path d="M18.3478 146.163C18.3478 146.163 18.6098 146.15 19.0699 146.07C19.53 145.99 20.1946 145.88 21.019 145.763C22.6677 145.523 24.9618 145.283 27.5115 145.271C30.0548 145.259 32.3553 145.474 34.0104 145.695C34.8347 145.806 35.5057 145.904 35.9658 145.984C36.4259 146.058 36.6815 146.089 36.6879 146.07C36.6879 146.052 36.4451 145.984 35.985 145.874C35.5313 145.763 34.8667 145.634 34.036 145.492C32.3809 145.216 30.0676 144.97 27.5051 144.976C24.9426 144.994 22.6293 145.265 20.9806 145.554C20.1563 145.701 19.4917 145.837 19.038 145.954C18.5843 146.064 18.335 146.138 18.3414 146.156L18.3478 146.163Z" fill="#263238"/>
<path d="M59.3222 142.91C59.3222 142.91 59.0921 142.707 58.6256 142.387C58.3956 142.221 58.108 142.037 57.763 141.84C57.4243 141.625 57.0217 141.416 56.5744 141.182C54.7851 140.266 52.0948 139.295 48.9891 139.042C45.877 138.766 43.0589 139.307 41.1354 139.903C40.1641 140.186 39.3909 140.432 38.8541 140.61C38.3173 140.789 38.0234 140.893 38.0298 140.912C38.0298 140.93 38.3429 140.862 38.8861 140.721C39.4804 140.561 40.26 140.352 41.193 140.1C43.1228 139.559 45.8962 139.061 48.9635 139.331C52.0245 139.577 54.6892 140.5 56.4785 141.36C56.9322 141.576 57.3348 141.772 57.6799 141.975C58.0314 142.16 58.3253 142.332 58.5617 142.48C59.041 142.769 59.3094 142.922 59.3222 142.91Z" fill="#263238"/>
<path d="M28.6426 136.804C28.6362 136.847 29.2113 136.952 30.1123 137.192C31.0134 137.431 32.2403 137.831 33.5375 138.415C34.8284 138.999 35.9467 139.639 36.7327 140.125C37.525 140.61 37.9979 140.936 38.0235 140.905C38.0491 140.875 37.6145 140.493 36.8477 139.959C36.0808 139.424 34.9689 138.747 33.6589 138.151C32.3489 137.561 31.09 137.179 30.1571 136.989C29.2305 136.798 28.6426 136.767 28.6362 136.798L28.6426 136.804Z" fill="#263238"/>
<path d="M74.6652 226.322C74.6652 226.66 77.5216 249.828 69.112 259.285C67.3675 261.578 65.1117 264.044 62.5747 266.608V267.45H54.7083V226.322H74.6716H74.6652Z" fill="#AE7461"/>
<path d="M36.643 226.322C36.643 226.66 33.7865 249.828 42.1961 259.285C43.9407 261.578 46.1964 264.044 48.7334 266.608V267.45H56.5998V226.322H36.6366H36.643Z" fill="#AE7461"/>
<path d="M48.925 266.836C48.925 266.719 52.0052 266.626 55.8074 266.626C59.6096 266.626 62.6897 266.719 62.6897 266.836C62.6897 266.952 59.6096 267.045 55.8074 267.045C52.0052 267.045 48.925 266.952 48.925 266.836Z" fill="#263238"/>
<path d="M36.2531 231.837C36.2531 231.721 44.9567 231.628 55.6923 231.628C66.428 231.628 75.1316 231.721 75.1316 231.837C75.1316 231.954 66.428 232.047 55.6923 232.047C44.9567 232.047 36.2531 231.954 36.2531 231.837Z" fill="#263238"/>
<path d="M36.2531 233.86C36.2531 233.743 44.9567 233.651 55.6923 233.651C66.428 233.651 75.1316 233.743 75.1316 233.86C75.1316 233.977 66.428 234.069 55.6923 234.069C44.9567 234.069 36.2531 233.977 36.2531 233.86Z" fill="#263238"/>
<path d="M36.2531 235.853C36.2531 235.736 44.9567 235.644 55.6923 235.644C66.428 235.644 75.1316 235.736 75.1316 235.853C75.1316 235.969 66.428 236.062 55.6923 236.062C44.9567 236.062 36.2531 235.969 36.2531 235.853Z" fill="#263238"/>
<path d="M72.9142 214.763C71.4252 212.918 69.5465 211.455 67.6294 210.09C66.69 209.426 65.7443 208.774 64.7793 208.147C64.3512 207.87 64.4981 207.2 64.9902 207.151C66.5814 206.991 68.3004 207.802 69.719 208.725C72.3901 210.471 74.7865 212.672 76.7803 215.199C76.8442 213.865 76.6461 212.531 76.2818 211.03C75.6811 208.571 74.4798 205.614 72.5627 203.222C72.4732 203.209 72.3838 203.197 72.2943 203.185C70.3516 202.951 68.3771 203.043 66.4727 202.576C66.2363 202.521 65.9935 202.447 65.8082 202.281C65.6228 202.115 65.527 201.826 65.642 201.611C65.7634 201.389 66.0446 201.334 66.2938 201.31C67.7891 201.15 69.3036 201.18 70.799 201.389C69.2142 200.037 67.2843 199.084 64.971 198.881C58.306 198.284 58.2229 202.01 58.2229 202.01C58.0567 201.771 54.8233 197.872 48.7014 200.449C44.4646 202.238 42.5475 204.857 42.1194 207.778C42.6562 207.452 43.1993 207.145 43.7425 206.843C45.6149 205.804 47.5 204.759 49.5321 204.083C51.5642 203.406 53.7689 203.111 55.8649 203.609C56.2036 203.689 56.5806 203.824 56.7212 204.156C56.8618 204.501 56.6573 204.906 56.3569 205.103C56.0566 205.3 55.686 205.349 55.3281 205.398C50.3756 206.112 45.7555 208.799 42.6114 212.74C43.1035 214.468 44.0237 217.032 45.4296 219.786C46.6373 217.573 47.8834 215.371 49.5321 213.49C51.3406 211.424 53.6858 209.752 56.3633 209.278C56.734 209.21 57.1365 209.174 57.4816 209.34C58.1973 209.678 58.3251 210.741 57.9481 211.436C57.5647 212.131 56.8554 212.543 56.178 212.943C54.0053 214.222 51.9093 215.66 50.1456 217.474C48.7781 218.882 47.615 220.53 46.861 222.362C47.7109 223.77 48.695 225.172 49.8069 226.494C51.986 223.235 54.7274 220.376 57.8842 218.108C58.2293 217.862 58.6447 217.609 59.0472 217.751C59.4946 217.905 59.6799 218.489 59.5649 218.956C59.4498 219.423 59.1111 219.78 58.7789 220.118C57.1302 221.803 55.3664 223.426 54.1778 225.486C53.4557 226.734 52.9765 228.197 52.9317 229.648C55.1939 231.555 57.8586 233.043 60.9579 233.737C60.9579 233.737 62.7728 233.436 65.3417 231.788C65.0285 228.751 64.2809 225.756 63.1306 222.928C62.9773 222.553 62.8175 222.11 63.0156 221.76C63.2584 221.336 63.9166 221.36 64.2873 221.686C64.6579 222.012 64.8241 222.516 64.9646 222.996C65.7123 225.474 66.4536 227.958 67.2012 230.436C68.1917 229.636 69.2397 228.64 70.3133 227.41C69.8979 222.842 67.7508 218.421 64.4215 215.304C64.0828 214.99 63.7249 214.677 63.546 214.246C63.3607 213.822 63.4182 213.25 63.7952 213.004C64.1978 212.746 64.7346 212.973 65.15 213.232C67.5783 214.75 69.227 217.357 70.1152 220.118C70.767 222.153 71.0418 224.275 71.1504 226.408C71.291 226.236 71.4252 226.064 71.5658 225.879C73.3551 223.537 74.6012 221.637 75.4319 219.964C75.0805 218.058 74.1411 216.263 72.9205 214.757L72.9142 214.763Z" fill="#455A64"/>
<path d="M60.9516 233.737C60.9516 233.737 60.9836 233.626 61.0219 233.411C61.0602 233.165 61.1114 232.852 61.1753 232.464C61.3031 231.64 61.4884 230.454 61.6737 228.978C61.8526 227.502 62.0252 225.732 62.006 223.758C61.9996 222.768 61.9229 221.741 61.9102 220.677C61.891 219.614 61.891 218.507 61.891 217.37C61.891 215.101 61.8463 212.936 61.6098 210.975C61.3734 209.014 60.9516 207.274 60.4212 205.872C59.8972 204.464 59.2901 203.4 58.8109 202.705C58.568 202.361 58.3699 202.096 58.223 201.93C58.0824 201.758 57.9993 201.672 57.9929 201.678C57.9673 201.697 58.2677 202.059 58.715 202.76C59.1623 203.468 59.7311 204.537 60.2295 205.933C60.7279 207.329 61.1242 209.057 61.3414 211C61.5651 212.943 61.597 215.101 61.597 217.363C61.597 218.495 61.597 219.601 61.6226 220.671C61.6418 221.741 61.7184 222.774 61.7376 223.752C61.7696 225.707 61.6162 227.472 61.4692 228.947C61.3031 230.392 61.1689 231.579 61.0666 232.44C61.0283 232.827 60.9963 233.141 60.9708 233.393C60.9516 233.608 60.9452 233.725 60.958 233.725L60.9516 233.737Z" fill="#263238"/>
<path d="M61.6739 212.211C61.6739 212.211 61.4821 212.334 61.1626 212.58C60.8431 212.826 60.3766 213.176 59.7951 213.594C58.6321 214.443 56.9514 215.519 55.1174 216.749C53.2706 217.972 51.7306 219.276 50.7976 220.376C50.3247 220.924 49.986 221.397 49.7815 221.735C49.5707 222.073 49.4748 222.276 49.494 222.282C49.5387 222.313 49.9924 221.551 50.9637 220.505C51.9287 219.454 53.4623 218.2 55.2964 216.982C57.124 215.759 58.7918 214.646 59.9293 213.754C60.498 213.312 60.9454 212.936 61.2457 212.66C61.5397 212.389 61.693 212.223 61.6802 212.211H61.6739Z" fill="#263238"/>
<path d="M71.4701 215.918C71.4701 215.918 71.4189 215.74 71.272 215.445C71.1314 215.144 70.8885 214.726 70.5563 214.234C69.8917 213.25 68.7861 211.971 67.2716 210.901C66.5112 210.366 65.738 209.936 65.0031 209.598C64.2618 209.284 63.5717 209.032 62.9774 208.891C62.6834 208.805 62.4086 208.761 62.1722 208.718C61.9358 208.669 61.7249 208.645 61.5523 208.632C61.2137 208.602 61.022 208.589 61.022 208.608C61.0156 208.663 61.7632 208.743 62.9199 209.087C63.5014 209.247 64.166 209.512 64.8881 209.838C65.5974 210.182 66.3578 210.612 67.0991 211.135C68.5817 212.186 69.6872 213.41 70.3901 214.357C71.093 215.304 71.4317 215.955 71.4828 215.931L71.4701 215.918Z" fill="#263238"/>
<path d="M49.3917 210.059C49.4172 210.096 49.9987 209.776 50.9317 209.26C51.8711 208.749 53.1619 208.03 54.67 207.421C56.1781 206.813 57.6415 206.505 58.7023 206.425C59.7695 206.339 60.4341 206.425 60.4404 206.37C60.4404 206.351 60.2807 206.308 59.9803 206.271C59.68 206.228 59.2391 206.204 58.6895 206.222C57.5968 206.253 56.0951 206.536 54.555 207.157C53.0149 207.772 51.7305 208.528 50.8167 209.088C49.9029 209.653 49.3597 210.028 49.3853 210.059H49.3917Z" fill="#263238"/>
<path d="M67.77 204.279C67.7828 204.248 67.3546 204.088 66.6325 203.935C65.9104 203.781 64.888 203.658 63.7569 203.707C62.6258 203.763 61.6225 203.99 60.9196 204.211C60.2167 204.433 59.8077 204.636 59.8205 204.666C59.8524 204.765 61.5523 204.101 63.7697 203.996C65.9871 203.886 67.7508 204.377 67.77 204.279Z" fill="#263238"/>
<path d="M64.4599 152.453C64.3896 152.453 64.5174 151.174 64.1404 149.169C63.7762 147.183 62.7601 144.453 60.6641 142.086C58.5681 139.725 55.9225 138.329 53.9415 137.665C51.9478 136.989 50.6122 136.909 50.625 136.841C50.625 136.823 50.9573 136.829 51.5516 136.903C52.1459 136.97 52.9958 137.136 54.0182 137.45C56.0503 138.065 58.7726 139.454 60.9197 141.877C63.0605 144.293 64.0637 147.103 64.3769 149.132C64.543 150.153 64.5686 150.989 64.5494 151.561C64.5302 152.139 64.4855 152.453 64.4663 152.453H64.4599Z" fill="white"/>
<path d="M77.4195 166.379C77.3492 166.447 76.4865 165.623 75.2213 164.891C73.9624 164.147 72.8057 163.785 72.8377 163.692C72.8505 163.612 74.0902 163.846 75.3938 164.621C76.7038 165.383 77.4898 166.336 77.4195 166.385V166.379Z" fill="white"/>
<path d="M84.7492 173.555C84.6533 173.585 84.4105 172.872 83.7523 172.251C83.1069 171.618 82.3656 171.384 82.3975 171.292C82.3975 171.206 83.2666 171.323 83.9887 172.024C84.7172 172.718 84.8386 173.548 84.7556 173.555H84.7492Z" fill="white"/>
<path d="M88.7878 180.478C88.7047 180.515 88.5258 180.312 88.2893 180.091C88.0593 179.869 87.8484 179.697 87.8867 179.611C87.9187 179.531 88.2446 179.599 88.5194 179.863C88.7942 180.128 88.8645 180.441 88.7814 180.472L88.7878 180.478Z" fill="white"/>
<path d="M57.3347 169.798C57.2452 169.737 58.6894 168.083 59.7246 165.654C60.7854 163.237 60.9963 161.085 61.1049 161.104C61.1433 161.104 61.1433 161.645 61.0027 162.506C60.8685 163.367 60.5617 164.541 60.0314 165.777C59.4946 167.007 58.8364 168.04 58.2996 168.74C57.7628 169.441 57.3602 169.823 57.3347 169.798Z" fill="white"/>
<g opacity="0.3">
<path d="M63.9936 148.831C63.8082 145.757 61.9742 142.836 59.6673 140.709C57.3605 138.581 54.472 136.903 51.2705 136.86C50.0947 136.712 48.9444 137.579 48.5738 138.667C48.2032 139.756 48.5099 140.973 49.1362 141.945C49.7624 142.916 50.6826 143.678 51.622 144.373C54.9258 146.833 58.6896 148.72 62.6708 149.925C62.9711 150.018 63.3098 150.098 63.5846 149.956C63.968 149.759 64.0191 149.249 63.9936 148.831Z" fill="white"/>
</g>
<path d="M122.752 228.683L113.965 267.592H120.72L135.967 228.45L122.752 228.683Z" fill="#BA8777"/>
<g opacity="0.3">
<path d="M133.347 235.182L121.327 234.998L122.292 230.485L135.085 231.173L133.347 235.182Z" fill="black"/>
</g>
<path d="M241.72 228.684L250.328 267.451H243.509L228.505 228.45L241.72 228.684Z" fill="#6F4439"/>
<path d="M181.191 228.684L190.253 267.488H183.358L167.976 228.45L181.191 228.684Z" fill="#6F4439"/>
<path d="M201.205 228.684L192.419 267.592H199.173L214.421 228.45L201.205 228.684Z" fill="#AE7461"/>
<path d="M196.95 90.0013C196.95 90.0013 181.083 89.368 180.13 105.256C179.178 121.144 190.598 147.356 189.511 154.513C188.425 161.67 135.744 145.732 129.341 144.779C122.944 143.82 116.253 149.065 116.253 155.576C116.253 160.95 118.106 208.399 118.752 225.652C118.873 228.929 121.672 231.53 125.085 231.53H198.765L220.785 188.846C220.785 188.846 263.913 146.784 263.913 146.15C263.913 145.517 261.006 85.4268 261.006 85.4268L205.596 89.8538L196.943 90.0136L196.95 90.0013Z" fill="#692765"/>
<path opacity="0.3" d="M138.894 187.647V163.207C138.894 160.046 142.044 157.728 145.291 158.515C158.927 161.823 190.106 168.851 196.151 165.494C196.151 165.494 200.701 162.18 201.353 154.058C202.004 145.935 194.649 123.462 194.4 111.817C194.195 102.059 203.314 89.8722 203.314 89.8722L257.938 85.6973C257.938 85.6973 252.794 167.529 253.817 169.128C254.839 170.726 217.897 211.59 217.897 211.59L138.894 196.747V187.654V187.647Z" fill="black"/>
<g opacity="0.3">
<path d="M191.192 216.595C190.144 216.479 122.905 213.724 122.905 213.724L122.528 208L193.109 206.579L191.186 216.595H191.192Z" fill="black"/>
</g>
<path d="M123.321 231.051C123.321 231.051 123.353 230.725 123.359 230.141C123.359 229.501 123.359 228.671 123.353 227.669C123.334 225.585 123.283 222.701 123.187 219.516C123.091 216.331 122.957 213.447 122.829 211.363C122.765 210.324 122.701 209.475 122.65 208.897C122.599 208.313 122.56 207.993 122.535 207.993C122.516 207.993 122.509 208.319 122.522 208.903C122.541 209.543 122.567 210.373 122.599 211.375C122.669 213.515 122.765 216.368 122.867 219.522C122.969 222.676 123.059 225.535 123.129 227.675C123.174 228.677 123.212 229.507 123.238 230.147C123.27 230.731 123.302 231.051 123.321 231.051Z" fill="#263238"/>
<g opacity="0.3">
<path d="M243.548 236.757H231.745L229.904 232.028H242.474L243.548 236.757Z" fill="black"/>
</g>
<path d="M135.814 188.552C135.814 188.552 135.795 188.379 135.788 188.047C135.788 187.691 135.788 187.211 135.788 186.609C135.801 185.33 135.82 183.534 135.846 181.327C135.929 176.838 136.044 170.696 136.165 163.908C136.204 160.508 136.44 157.255 136.044 154.347C135.846 152.896 135.494 151.537 134.945 150.35C134.421 149.157 133.654 148.174 132.855 147.387C131.219 145.819 129.385 145.173 128.12 145.044C126.835 144.933 126.133 145.167 126.126 145.118C126.126 145.105 126.299 145.062 126.631 144.995C126.97 144.927 127.475 144.884 128.133 144.921C129.43 145.013 131.328 145.64 133.021 147.227C133.846 148.02 134.651 149.022 135.194 150.24C135.763 151.451 136.133 152.834 136.344 154.304C136.76 157.255 136.53 160.514 136.491 163.908C136.331 170.696 136.184 176.838 136.076 181.327C136.006 183.534 135.948 185.33 135.91 186.609C135.884 187.211 135.865 187.685 135.846 188.041C135.827 188.367 135.814 188.539 135.801 188.539L135.814 188.552Z" fill="#263238"/>
<g opacity="0.3">
<path d="M125.832 146.618C122.298 147.571 119.781 150.793 118.924 154.23C118.068 157.667 118.63 161.282 119.563 164.701C119.774 165.47 120.023 166.269 120.63 166.81C121.474 167.566 122.822 167.591 123.883 167.148C124.938 166.705 125.762 165.869 126.516 165.033C128.126 163.225 129.558 161.27 130.785 159.204C131.743 157.581 132.58 155.859 132.861 154.009C133.136 152.164 132.791 150.166 131.583 148.708C130.376 147.251 127.653 145.966 125.839 146.624" fill="white"/>
</g>
<path d="M183.862 158.27C183.862 158.27 183.709 158.27 183.415 158.239C183.089 158.202 182.674 158.153 182.15 158.091C181.051 157.956 179.466 157.741 177.504 157.458C173.587 156.886 168.193 156.001 162.27 154.845C156.346 153.683 151.023 152.465 147.189 151.518C145.272 151.045 143.725 150.645 142.658 150.356C142.153 150.215 141.744 150.104 141.431 150.018C141.15 149.938 141.009 149.889 141.009 149.877C141.009 149.864 141.163 149.895 141.45 149.957C141.763 150.03 142.179 150.123 142.69 150.239C143.802 150.498 145.348 150.86 147.246 151.303C151.093 152.195 156.423 153.375 162.34 154.537C168.257 155.693 173.638 156.616 177.542 157.243C179.466 157.55 181.038 157.796 182.169 157.974C182.687 158.06 183.108 158.128 183.428 158.183C183.715 158.233 183.862 158.263 183.862 158.276V158.27Z" fill="white"/>
<path d="M187.518 95.3752C187.518 95.3752 187.435 95.5228 187.249 95.7934C187.058 96.0577 186.796 96.4574 186.463 96.9739C185.818 98.0192 184.955 99.5809 184.271 101.653C183.594 103.719 183.089 106.295 183.243 109.16C183.377 112.032 184.163 115.118 184.987 118.346C186.591 124.809 188.048 130.656 189.109 134.923C189.614 137.026 190.029 138.735 190.323 139.953C190.451 140.525 190.559 140.98 190.636 141.324C190.706 141.637 190.732 141.803 190.726 141.81C190.713 141.81 190.662 141.65 190.572 141.342C190.476 141.004 190.355 140.549 190.195 139.983C189.876 138.766 189.428 137.069 188.879 134.978C187.792 130.711 186.304 124.876 184.661 118.426C183.843 115.198 183.051 112.087 182.936 109.179C182.802 106.271 183.332 103.664 184.048 101.585C184.77 99.501 185.677 97.9392 186.355 96.9124C186.706 96.4021 186.987 96.0086 187.198 95.7626C187.403 95.5105 187.511 95.3753 187.524 95.3814L187.518 95.3752Z" fill="white"/>
<path d="M117.947 155.546C117.947 155.546 117.934 155.386 117.966 155.097C117.991 154.814 118.081 154.402 118.221 153.91C118.509 152.92 119.129 151.598 120.158 150.375C121.193 149.151 122.413 148.296 123.366 147.829C123.839 147.589 124.235 147.429 124.522 147.343C124.803 147.257 124.963 147.214 124.97 147.239C124.989 147.294 124.375 147.515 123.481 148.026C122.586 148.536 121.429 149.391 120.42 150.577C119.416 151.77 118.784 153.031 118.445 153.984C118.106 154.937 118.004 155.558 117.947 155.552V155.546Z" fill="white"/>
<path d="M128.727 189.351C128.727 189.351 105.671 188.324 102.878 192.708C100.092 197.098 103.357 205.491 107.077 206.782C110.796 208.073 201.218 210.01 203.078 207.169C204.937 204.329 210.631 191.779 201.736 190.328C192.847 188.877 128.72 189.344 128.72 189.344L128.727 189.351Z" fill="#692765"/>
<path d="M188.214 189.56C188.214 189.646 171.906 189.72 151.796 189.72C131.686 189.72 115.371 189.646 115.371 189.56C115.371 189.474 131.673 189.4 151.796 189.4C171.919 189.4 188.214 189.474 188.214 189.56Z" fill="#263238"/>
<path d="M191.927 159.776C191.927 159.776 191.908 159.616 191.933 159.333C191.952 159.05 192.029 158.644 192.163 158.153C192.419 157.169 192.981 155.847 193.933 154.593C194.892 153.338 196.029 152.422 196.924 151.887C197.371 151.617 197.748 151.426 198.023 151.321C198.291 151.211 198.445 151.162 198.458 151.18C198.483 151.229 197.902 151.5 197.058 152.078C196.215 152.65 195.135 153.56 194.208 154.783C193.281 156.007 192.706 157.273 192.4 158.22C192.086 159.167 191.997 159.782 191.939 159.776H191.927Z" fill="white"/>
<path d="M181.683 191.632C181.683 191.718 167.701 191.791 150.46 191.791C133.219 191.791 119.231 191.718 119.231 191.632C119.231 191.545 133.213 191.472 150.46 191.472C167.708 191.472 181.683 191.545 181.683 191.632Z" fill="white"/>
<path d="M246.538 232.028C248.404 232.028 250.04 230.436 250.545 228.124C254.13 211.775 267.92 148.997 271.473 134.376C275.007 119.84 277.915 101.868 278.899 95.535C279.122 94.0901 278.643 92.6144 277.678 91.809C272.713 87.6648 257.287 76.4928 250.059 90.7698C241.375 107.918 248.743 131.185 247.164 144.072C245.676 156.24 246.519 164.35 234.512 159.683C223.533 155.423 207.966 147.522 200.17 148.13C194.745 148.555 190.163 150.442 189.007 167.591C188.118 180.755 187.997 213.828 186.917 226.064C186.636 229.249 188.572 232.034 191.058 232.034H246.545L246.538 232.028Z" fill="#692765"/>
<path d="M187.371 231.524C187.371 231.524 187.358 231.37 187.351 231.069C187.351 230.755 187.345 230.313 187.332 229.728C187.326 228.542 187.313 226.808 187.3 224.582C187.3 222.344 187.243 219.614 187.307 216.435C187.364 213.256 187.434 209.641 187.505 205.644C187.684 197.651 187.927 188.133 188.361 177.57C188.482 174.932 188.61 172.22 188.744 169.46C188.821 168.076 188.879 166.681 189.019 165.273C189.083 164.565 189.147 163.858 189.211 163.145C189.32 162.438 189.435 161.731 189.55 161.018C190.054 158.189 190.777 155.275 192.336 152.662L192.943 151.696L193.678 150.805C193.908 150.491 194.215 150.245 194.496 149.981L194.93 149.587L195.422 149.255C196.72 148.376 198.355 147.86 199.991 148.063C200.042 148.063 200.1 148.081 200.151 148.087H200.074C201.666 147.718 203.353 148.013 204.765 148.708C206.177 149.421 207.385 150.461 208.28 151.703C209.193 152.938 209.737 154.365 210.094 155.798C210.439 157.236 210.58 158.694 210.625 160.138C210.701 163.022 210.548 165.838 210.427 168.605C210.28 171.366 210.139 174.065 210.005 176.703C209.385 187.242 208.823 196.729 208.35 204.697C207.883 212.66 207.506 219.104 207.251 223.568C207.136 225.787 207.046 227.515 206.989 228.702C206.963 229.28 206.944 229.728 206.931 230.036C206.918 230.337 206.899 230.491 206.899 230.491C206.899 230.491 206.893 230.337 206.899 230.036C206.899 229.722 206.912 229.28 206.925 228.702C206.957 227.527 207.021 225.793 207.123 223.568C207.327 219.11 207.672 212.66 208.12 204.691C208.567 196.723 209.104 187.229 209.698 176.697C209.832 174.059 209.973 171.36 210.114 168.599C210.229 165.838 210.376 163.022 210.299 160.157C210.254 158.73 210.114 157.292 209.768 155.877C209.417 154.476 208.887 153.086 208.005 151.899C207.142 150.7 205.966 149.692 204.612 149.009C203.25 148.339 201.653 148.069 200.151 148.413H200.119H200.074C200.03 148.407 199.991 148.395 199.94 148.388C198.413 148.198 196.854 148.684 195.608 149.526L195.135 149.84L194.713 150.221C194.438 150.473 194.138 150.713 193.921 151.014L193.205 151.875L192.617 152.822C191.09 155.379 190.374 158.263 189.869 161.073C189.754 161.78 189.645 162.487 189.537 163.188C189.473 163.895 189.409 164.602 189.345 165.303C189.198 166.705 189.141 168.101 189.064 169.484C188.93 172.245 188.802 174.95 188.674 177.588C188.22 188.145 187.952 197.663 187.748 205.657C187.658 209.653 187.569 213.269 187.498 216.441C187.415 219.614 187.46 222.35 187.434 224.588C187.422 226.814 187.409 228.548 187.402 229.735C187.396 230.319 187.39 230.761 187.383 231.075C187.383 231.376 187.364 231.53 187.364 231.53L187.371 231.524Z" fill="#263238"/>
<path d="M249.963 114.872C249.963 114.872 249.874 114.639 249.778 114.202C249.676 113.766 249.561 113.132 249.446 112.339C249.216 110.759 249.037 108.552 249.12 106.117C249.209 103.676 249.542 101.487 249.887 99.9252C250.059 99.1443 250.219 98.5171 250.347 98.0867C250.475 97.6563 250.558 97.4227 250.577 97.4288C250.628 97.4411 250.392 98.4003 250.117 99.9621C249.836 101.524 249.542 103.7 249.452 106.123C249.369 108.539 249.51 110.728 249.682 112.308C249.855 113.889 250.021 114.86 249.963 114.866V114.872Z" fill="white"/>
</svg>
