<svg width="75" height="73" viewBox="0 0 75 73" fill="none" xmlns="http://www.w3.org/2000/svg">
<g clip-path="url(#clip0_30_206)">
<path fill-rule="evenodd" clip-rule="evenodd" d="M64.0625 10.6458C57.0312 3.80208 47.5 0 37.5 0C16.9062 0 0 16.4554 0 36.5C0 42.9179 2.03125 49.0013 5.3125 54.5067L0 73L19.7812 68.2854C25.25 71.2054 31.25 73 37.5 73C58.0938 73 75 56.5446 75 36.5C75 26.7971 71.125 17.52 64.0625 10.6458ZM37.5 66.9167C31.9375 66.9167 26.625 65.1221 21.8438 62.3846L20.7188 61.7154L8.96875 64.7267L12.0938 53.5638L11.3438 52.4079C8.25 47.6021 6.25 42.2183 6.25 36.5C6.25 19.8317 20.375 6.08333 37.5 6.08333C45.7812 6.08333 53.75 9.27708 59.625 14.9954C65.5 20.7138 68.75 28.4396 68.75 36.5C68.75 53.1683 54.5938 66.9167 37.5 66.9167ZM54.6875 43.9521C53.75 43.4958 49.1562 41.3058 48.3125 41.0017C47.4688 40.6975 46.8438 40.5454 46.2188 41.4579C45.5938 42.3704 43.8125 44.4083 43.25 45.0167C42.7188 45.625 42.1562 45.6858 41.2188 45.2296C40.2812 44.7733 37.2812 43.8304 33.7188 40.7279C30.9375 38.325 29.0625 35.3442 28.5312 34.4317C28 33.5192 28.4688 33.0325 28.9375 32.5763C29.3438 32.1808 29.875 31.5117 30.3438 30.9946C30.8125 30.4775 30.9688 30.0821 31.2812 29.4737C31.5938 28.8654 31.4375 28.3483 31.2188 27.8921C30.9688 27.4358 29.0938 22.9646 28.3125 21.1396C27.5625 19.3754 26.7813 19.6188 26.2188 19.5883C25.6875 19.5579 25.0625 19.5579 24.4375 19.5579C23.8125 19.5579 22.8125 19.8013 21.9375 20.6833C21.0938 21.5958 18.6875 23.8163 18.6875 28.2875C18.6875 32.7588 22.0312 37.0779 22.5 37.6863C22.9688 38.2946 29.0938 47.4804 38.4375 51.4042C40.6562 52.3471 42.4062 52.8946 43.75 53.3204C46 54.02 48.0312 53.9287 49.625 53.6854C51.4062 53.4117 55.1562 51.4954 55.9375 49.3662C56.7188 47.2371 56.7188 45.4121 56.4688 45.0471C56.25 44.6517 55.625 44.4083 54.6875 43.9521Z" fill="white"/>
</g>
<defs>
<clipPath id="clip0_30_206">
<rect width="75" height="73" fill="white"/>
</clipPath>
</defs>
</svg>
