<svg width="35" height="29" viewBox="0 0 35 29" fill="none" xmlns="http://www.w3.org/2000/svg">
<g clip-path="url(#clip0_51_7)">
<path fill-rule="evenodd" clip-rule="evenodd" d="M29.8958 4.22917C26.6146 1.51042 22.1667 0 17.5 0C7.88958 0 0 6.53708 0 14.5C0 17.0496 0.947917 19.4663 2.47917 21.6533L0 29L9.23125 27.1271C11.7833 28.2871 14.5833 29 17.5 29C27.1104 29 35 22.4629 35 14.5C35 10.6454 33.1917 6.96 29.8958 4.22917ZM17.5 26.5833C14.9042 26.5833 12.425 25.8704 10.1938 24.7829L9.66875 24.5171L4.18542 25.7133L5.64375 21.2788L5.29375 20.8196C3.85 18.9104 2.91667 16.7717 2.91667 14.5C2.91667 7.87833 9.50833 2.41667 17.5 2.41667C21.3646 2.41667 25.0833 3.68542 27.825 5.95708C30.5667 8.22875 32.0833 11.2979 32.0833 14.5C32.0833 21.1217 25.4771 26.5833 17.5 26.5833ZM25.5208 17.4604C25.0833 17.2792 22.9396 16.4092 22.5458 16.2883C22.1521 16.1675 21.8604 16.1071 21.5688 16.4696C21.2771 16.8321 20.4458 17.6417 20.1833 17.8833C19.9354 18.125 19.6729 18.1492 19.2354 17.9679C18.7979 17.7867 17.3979 17.4121 15.7354 16.1796C14.4375 15.225 13.5625 14.0408 13.3146 13.6783C13.0667 13.3158 13.2854 13.1225 13.5042 12.9413C13.6938 12.7842 13.9417 12.5183 14.1604 12.3129C14.3792 12.1075 14.4521 11.9504 14.5979 11.7087C14.7438 11.4671 14.6708 11.2617 14.5688 11.0804C14.4521 10.8992 13.5771 9.12292 13.2125 8.39792C12.8625 7.69708 12.4979 7.79375 12.2354 7.78167C11.9875 7.76958 11.6958 7.76958 11.4042 7.76958C11.1125 7.76958 10.6458 7.86625 10.2375 8.21667C9.84375 8.57917 8.72083 9.46125 8.72083 11.2375C8.72083 13.0138 10.2812 14.7296 10.5 14.9713C10.7188 15.2129 13.5771 18.8621 17.9375 20.4208C18.9729 20.7954 19.7896 21.0129 20.4167 21.1821C21.4667 21.46 22.4146 21.4237 23.1583 21.3271C23.9896 21.2183 25.7396 20.4571 26.1042 19.6112C26.4688 18.7654 26.4688 18.0404 26.3521 17.8954C26.25 17.7383 25.9583 17.6417 25.5208 17.4604Z" fill="#2E5266"/>
</g>
<defs>
<clipPath id="clip0_51_7">
<rect width="35" height="29" fill="white"/>
</clipPath>
</defs>
</svg>
